<svg width="20" height="20" viewBox="0 0 20 20" fill="none" xmlns="http://www.w3.org/2000/svg">
<g id="audio 1">
<path id="Vector" d="M11.6665 2.97046V3.81254C14.7194 4.22213 17.0832 6.83671 17.0832 10C17.0832 13.1634 14.7194 15.778 11.6665 16.188V17.03C15.1803 16.6155 17.9165 13.6234 17.9165 10C17.9165 6.37671 15.1803 3.38463 11.6665 2.97046Z" fill="#81D4FA"/>
<path id="Vector_2" d="M5.8335 13.3334H2.91683C2.45641 13.3334 2.0835 12.9605 2.0835 12.5001V7.50008C2.0835 7.03966 2.45641 6.66675 2.91683 6.66675H5.8335V13.3334Z" fill="#546E7A"/>
<path id="Vector_3" d="M10.8335 17.5L5.8335 13.3333V6.66667L10.8335 2.5V17.5Z" fill="#78909C"/>
<path id="Vector_4" d="M11.6665 7.2063V8.09338C12.4011 8.41588 12.9165 9.14797 12.9165 10C12.9165 10.8521 12.4011 11.5846 11.6665 11.9067V12.7938C12.8694 12.4342 13.7498 11.3188 13.7498 10C13.7498 8.68172 12.8694 7.56588 11.6665 7.2063Z" fill="#03A9F4"/>
<path id="Vector_5" d="M11.6665 5.07544V5.91752C13.5661 6.30502 14.9998 7.98836 14.9998 10.0004C14.9998 12.0129 13.5661 13.6959 11.6665 14.0834V14.9254C14.0273 14.5267 15.8332 12.4725 15.8332 10.0004C15.8332 7.52711 14.0273 5.47419 11.6665 5.07544Z" fill="#4FC3F7"/>
</g>
</svg>
