<svg width="16" height="16" viewBox="0 0 16 16" fill="none" xmlns="http://www.w3.org/2000/svg">
<g clip-path="url(#clip0_0_319)">
<path d="M15.7533 7.99995C15.7533 3.7187 12.2814 0.246826 8.0002 0.246826C3.71895 0.246826 0.24707 3.7187 0.24707 7.99995C0.24707 12.2812 3.71895 15.7531 8.0002 15.7531C12.2814 15.7531 15.7533 12.2812 15.7533 7.99995Z" fill="#32BEA6"/>
<path d="M12.2689 5.40323C12.0877 4.93135 11.7158 5.00635 11.3127 5.0876C11.072 5.1376 10.0002 5.45011 8.30953 7.23761C7.60641 7.97823 7.14391 8.56886 6.83766 9.01886C6.65016 8.79073 6.43766 8.54385 6.21266 8.32198C5.52203 7.63135 4.75016 7.15635 4.71891 7.1376C4.39703 6.94073 3.97516 7.04073 3.77516 7.36573C3.57828 7.6876 3.67828 8.10948 4.00016 8.30948C4.00641 8.3126 4.66891 8.72198 5.23766 9.29385C5.81891 9.8751 6.34703 10.6626 6.35328 10.672C6.48141 10.8657 6.69703 10.9782 6.92516 10.9782C6.96266 10.9782 7.00328 10.9751 7.04391 10.9689C7.31266 10.922 7.52516 10.722 7.59078 10.4595C7.59391 10.4532 7.86578 9.7001 9.30016 8.1876C10.4564 6.96573 11.2283 6.57823 11.497 6.47198C11.5002 6.47198 11.5002 6.47198 11.5064 6.47198C11.5064 6.47198 11.5158 6.46885 11.5314 6.45948C11.5783 6.44073 11.6033 6.43448 11.6033 6.43448C11.5908 6.4376 11.5845 6.4376 11.5845 6.4376V6.43448C11.7095 6.38135 11.9408 6.28135 11.9439 6.27823C12.2908 6.12823 12.4064 5.75323 12.2689 5.40323Z" fill="white"/>
</g>
<defs>
<clipPath id="clip0_0_319">
<rect width="16" height="16" fill="white"/>
</clipPath>
</defs>
</svg>
