<svg width="17" height="17" viewBox="0 0 17 17" fill="none" xmlns="http://www.w3.org/2000/svg">
<g clip-path="url(#clip0_0_312)">
<path d="M16.7213 5.95797C16.7293 6.00844 16.7346 6.05891 16.7346 6.10938C16.7346 6.55031 16.3787 6.90625 15.9377 6.90625H13.2815C13.061 6.90625 12.8618 6.99656 12.7183 7.14C12.5749 7.28344 12.4846 7.48266 12.4846 7.70312C12.4846 7.92359 12.5749 8.12281 12.7183 8.26625C12.8618 8.40969 13.061 8.5 13.2815 8.5H13.8127C14.4343 8.5 14.931 9.03391 14.8699 9.66609C14.8168 10.2186 14.3227 10.625 13.7676 10.625H11.2893C11.106 10.625 10.9387 10.6994 10.8191 10.8189C10.6996 10.9384 10.6252 11.1058 10.6252 11.2891C10.6252 11.6556 10.9227 11.9531 11.2893 11.9531H11.4221C11.8763 11.9531 12.2402 12.3303 12.219 12.7925C12.1951 13.2228 11.8099 13.5469 11.3796 13.5469H9.96116C9.57334 13.5469 9.26522 13.8763 9.29975 14.272C9.32897 14.62 9.64772 14.875 9.99834 14.875H10.094C10.5482 14.875 10.9121 15.2522 10.8908 15.7144C10.8669 16.1447 10.4818 16.4688 10.0515 16.4688H0.797093C0.191468 16.4688 -0.252126 15.7994 0.159593 15.1592C0.292406 14.9547 0.536781 14.8697 0.781156 14.875C0.935218 14.8777 1.07334 14.8192 1.17162 14.7183C1.26991 14.6227 1.32834 14.4898 1.32834 14.3438C1.32834 14.0516 1.08928 13.8125 0.797093 13.8125C0.576624 13.8125 0.377406 13.7222 0.233968 13.5787C0.0772493 13.422 -0.0157194 13.2016 0.00287433 12.9572C0.0320931 12.5322 0.417249 12.2188 0.842249 12.2188H1.46116C1.84897 12.2188 2.15709 11.8894 2.12256 11.4936C2.09334 11.1456 1.77459 10.8906 1.42397 10.8906H0.929906C0.542093 10.8906 0.233968 10.5612 0.268499 10.1655C0.297718 9.8175 0.616468 9.5625 0.967093 9.5625H1.72678C1.91006 9.5625 2.07741 9.48812 2.19694 9.36859C2.3085 9.25703 2.38022 9.10563 2.39084 8.93828C2.41209 8.55313 2.07209 8.23438 1.68428 8.23438H1.59397C1.10256 8.23438 0.714749 7.78813 0.813031 7.28078C0.884749 6.90094 1.23803 6.64062 1.62319 6.64062H4.64866C4.83194 6.64062 4.99928 6.56625 5.11881 6.44672C5.23037 6.33516 5.30209 6.18375 5.31272 6.01641C5.33397 5.63125 4.99397 5.3125 4.60616 5.3125H4.38303C3.87037 5.3125 3.45334 4.89547 3.45334 4.38281C3.45334 4.335 3.456 4.28719 3.46662 4.24203C3.49584 4.04281 3.58881 3.86219 3.72694 3.72672C3.89428 3.55672 4.12803 3.45312 4.38303 3.45312H7.55459C7.73522 3.45312 7.89991 3.37875 8.02209 3.26187C8.14959 3.13437 8.22662 2.95641 8.21866 2.75453C8.20272 2.39594 7.88397 2.125 7.52537 2.125H7.43772C6.94631 2.125 6.5585 1.67875 6.65678 1.17141C6.7285 0.791562 7.08178 0.53125 7.46694 0.53125H16.0333C16.3521 0.53125 16.6496 0.738438 16.7187 1.04922C16.7718 1.28562 16.6921 1.50875 16.5433 1.66016C16.4265 1.77969 16.2618 1.85406 16.0812 1.85938H16.0705C15.8501 1.85938 15.6721 2.03734 15.6721 2.25781C15.6721 2.47828 15.8501 2.65625 16.0705 2.65625H16.2033C16.6576 2.65625 17.0215 3.03344 17.0002 3.49563C16.9763 3.92594 16.5912 4.25 16.1608 4.25H15.1408C14.8194 4.25 14.5618 4.53953 14.6176 4.87156C14.6601 5.13188 14.9097 5.3125 15.1727 5.3125H15.9377C16.1582 5.3125 16.3574 5.40281 16.5008 5.54625C16.6097 5.65516 16.6894 5.79859 16.7213 5.95797Z" fill="url(#paint0_radial_0_312)"/>
<path d="M12.4844 16.4688C12.0442 16.4688 11.6875 16.112 11.6875 15.6719C11.6875 15.2317 12.0442 14.875 12.4844 14.875C12.9245 14.875 13.2812 15.2317 13.2812 15.6719C13.2812 16.112 12.9245 16.4688 12.4844 16.4688Z" fill="url(#paint1_radial_0_312)"/>
<path d="M1.72656 5.3125C2.24002 5.3125 2.65625 4.89627 2.65625 4.38281C2.65625 3.86936 2.24002 3.45312 1.72656 3.45312C1.21311 3.45312 0.796875 3.86936 0.796875 4.38281C0.796875 4.89627 1.21311 5.3125 1.72656 5.3125Z" fill="url(#paint2_radial_0_312)"/>
<path d="M6.24636 7.88843C7.02862 7.88843 7.81089 8.18593 8.40642 8.78119L8.40668 8.78146C9.59722 9.97252 9.59722 11.9103 8.40668 13.1016L7.09157 14.4162C5.90078 15.6075 3.96278 15.607 2.77171 14.4162C1.58065 13.2254 1.58065 11.2874 2.77171 10.0963L4.08629 8.78146C4.68182 8.18619 5.46409 7.88843 6.24636 7.88843ZM7.09157 10.0963C6.62514 9.6304 5.86678 9.63013 5.40087 10.0966L4.08629 11.4111C3.62039 11.8773 3.62039 12.6354 4.08629 13.1016C4.55273 13.5672 5.31029 13.5678 5.77673 13.1016L7.09157 11.787C7.55748 11.3208 7.55748 10.5625 7.09157 10.0963Z" fill="url(#paint3_linear_0_312)"/>
<path d="M12.4444 1.69019C13.2267 1.69019 14.0089 1.98795 14.6045 2.58348C15.7955 3.77428 15.7955 5.71228 14.6045 6.90334L13.2899 8.21819C12.0996 9.40925 10.1614 9.40898 8.96976 8.21845C7.77896 7.02712 7.77896 5.08912 8.96976 3.89806L10.2846 2.58348C10.8799 1.98795 11.6621 1.69019 12.4444 1.69019ZM11.1296 7.25317C11.4356 7.25317 11.7418 7.13683 11.975 6.90387L13.2896 5.58903C13.7555 5.12286 13.7555 4.36476 13.2896 3.89859C12.8234 3.43269 12.0659 3.43269 11.5992 3.89859L10.2843 5.21317C9.81843 5.67934 9.81843 6.4377 10.2846 6.90387C10.5176 7.13656 10.8236 7.25317 11.1296 7.25317Z" fill="url(#paint4_linear_0_312)"/>
<path d="M10.378 5.87988C10.616 5.87988 10.8537 5.97073 11.0354 6.15215C11.3985 6.51499 11.3985 7.10388 11.0354 7.46673L7.65429 10.8479C7.29118 11.211 6.70282 11.211 6.33971 10.8479C5.97661 10.485 5.97661 9.89613 6.33971 9.53329L9.72059 6.15241C9.90228 5.97073 10.1403 5.87988 10.378 5.87988Z" fill="url(#paint5_linear_0_312)"/>
</g>
<defs>
<radialGradient id="paint0_radial_0_312" cx="0" cy="0" r="1" gradientUnits="userSpaceOnUse" gradientTransform="translate(6.67484 8.59616) scale(8.50717)">
<stop stop-color="#F4E9C3"/>
<stop offset="0.219" stop-color="#F8EECD"/>
<stop offset="0.644" stop-color="#FDF4DC"/>
<stop offset="1" stop-color="#FFF6E1"/>
</radialGradient>
<radialGradient id="paint1_radial_0_312" cx="0" cy="0" r="1" gradientUnits="userSpaceOnUse" gradientTransform="translate(6.67462 8.59616) scale(8.50717)">
<stop stop-color="#F4E9C3"/>
<stop offset="0.219" stop-color="#F8EECD"/>
<stop offset="0.644" stop-color="#FDF4DC"/>
<stop offset="1" stop-color="#FFF6E1"/>
</radialGradient>
<radialGradient id="paint2_radial_0_312" cx="0" cy="0" r="1" gradientUnits="userSpaceOnUse" gradientTransform="translate(6.67463 8.59616) scale(8.50717)">
<stop stop-color="#F4E9C3"/>
<stop offset="0.219" stop-color="#F8EECD"/>
<stop offset="0.644" stop-color="#FDF4DC"/>
<stop offset="1" stop-color="#FFF6E1"/>
</radialGradient>
<linearGradient id="paint3_linear_0_312" x1="7.08945" y1="14.6318" x2="2.88461" y2="6.13185" gradientUnits="userSpaceOnUse">
<stop stop-color="#155CDE"/>
<stop offset="0.278" stop-color="#1F7FE5"/>
<stop offset="0.569" stop-color="#279CEB"/>
<stop offset="0.82" stop-color="#2CAFEF"/>
<stop offset="1" stop-color="#2EB5F0"/>
</linearGradient>
<linearGradient id="paint4_linear_0_312" x1="13.3342" y1="8.22376" x2="8.94851" y2="0.221014" gradientUnits="userSpaceOnUse">
<stop stop-color="#155CDE"/>
<stop offset="0.278" stop-color="#1F7FE5"/>
<stop offset="0.569" stop-color="#279CEB"/>
<stop offset="0.82" stop-color="#2CAFEF"/>
<stop offset="1" stop-color="#2EB5F0"/>
</linearGradient>
<linearGradient id="paint5_linear_0_312" x1="9.2924" y1="9.14441" x2="7.91328" y2="7.67498" gradientUnits="userSpaceOnUse">
<stop stop-color="#155CDE"/>
<stop offset="0.278" stop-color="#1F7FE5"/>
<stop offset="0.569" stop-color="#279CEB"/>
<stop offset="0.82" stop-color="#2CAFEF"/>
<stop offset="1" stop-color="#2EB5F0"/>
</linearGradient>
<clipPath id="clip0_0_312">
<rect width="17" height="17" fill="white"/>
</clipPath>
</defs>
</svg>
