<svg width="19" height="19" viewBox="0 0 19 19" fill="none" xmlns="http://www.w3.org/2000/svg">
<path d="M8.03846 0C6.82812 0 5.84615 0.981971 5.84615 2.19231V8.03846H3.47115C2.44066 8.03846 2.22371 8.20403 3.10577 9.08894L7.92428 13.9075C9.5314 15.5146 9.51142 15.5203 11.1214 13.9075L15.9171 9.08894C16.7991 8.20403 16.5051 8.03846 15.5745 8.03846H13.1538V2.19231C13.1538 0.981971 12.1719 0 10.9615 0H8.03846ZM0 13.8846V16.8077C0 18.018 0.981971 19 2.19231 19H16.8077C18.018 19 19 18.018 19 16.8077V13.8846H17.5385V16.8077C17.5385 17.2102 17.2102 17.5385 16.8077 17.5385H2.19231C1.78981 17.5385 1.46154 17.2102 1.46154 16.8077V13.8846H0Z" fill="#5B5B5B"/>
</svg>
