<svg width="26" height="26" viewBox="0 0 26 26" fill="none" xmlns="http://www.w3.org/2000/svg">
<path d="M5.19997 3.46664C4.25265 3.46664 3.46664 4.25265 3.46664 5.19997V8.66664C3.46502 8.78148 3.48623 8.8955 3.52906 9.00208C3.57188 9.10865 3.63546 9.20565 3.7161 9.28744C3.79674 9.36922 3.89283 9.43417 3.99879 9.47849C4.10474 9.52282 4.21845 9.54565 4.33331 9.54565C4.44816 9.54565 4.56187 9.52282 4.66783 9.47849C4.77378 9.43417 4.86987 9.36922 4.95051 9.28744C5.03115 9.20565 5.09473 9.10865 5.13755 9.00208C5.18038 8.8955 5.2016 8.78148 5.19997 8.66664V5.19997H8.66664C8.78148 5.2016 8.8955 5.18038 9.00208 5.13755C9.10865 5.09473 9.20565 5.03115 9.28744 4.95051C9.36922 4.86987 9.43417 4.77378 9.47849 4.66783C9.52282 4.56187 9.54565 4.44816 9.54565 4.33331C9.54565 4.21845 9.52282 4.10474 9.47849 3.99879C9.43417 3.89283 9.36922 3.79674 9.28744 3.7161C9.20565 3.63546 9.10865 3.57188 9.00208 3.52906C8.8955 3.48623 8.78148 3.46502 8.66664 3.46664H5.19997ZM17.3333 3.46664C17.2185 3.46502 17.1044 3.48623 16.9979 3.52906C16.8913 3.57188 16.7943 3.63546 16.7125 3.7161C16.6307 3.79674 16.5658 3.89283 16.5215 3.99879C16.4771 4.10474 16.4543 4.21845 16.4543 4.33331C16.4543 4.44816 16.4771 4.56187 16.5215 4.66783C16.5658 4.77378 16.6307 4.86987 16.7125 4.95051C16.7943 5.03115 16.8913 5.09473 16.9979 5.13755C17.1044 5.18038 17.2185 5.2016 17.3333 5.19997H20.8V8.66664C20.7983 8.78148 20.8196 8.8955 20.8624 9.00208C20.9052 9.10865 20.9688 9.20565 21.0494 9.28744C21.1301 9.36922 21.2262 9.43417 21.3321 9.47849C21.4381 9.52282 21.5518 9.54565 21.6666 9.54565C21.7815 9.54565 21.8952 9.52282 22.0012 9.47849C22.1071 9.43417 22.2032 9.36922 22.2838 9.28744C22.3645 9.20565 22.4281 9.10865 22.4709 9.00208C22.5137 8.8955 22.5349 8.78148 22.5333 8.66664V5.19997C22.5333 4.25265 21.7473 3.46664 20.8 3.46664H17.3333ZM4.31976 16.4548C4.09021 16.4584 3.87145 16.5529 3.7115 16.7176C3.55156 16.8823 3.4635 17.1037 3.46664 17.3333V20.8C3.46664 21.7473 4.25265 22.5333 5.19997 22.5333H8.66664C8.78148 22.5349 8.8955 22.5137 9.00208 22.4709C9.10865 22.4281 9.20565 22.3645 9.28744 22.2838C9.36922 22.2032 9.43417 22.1071 9.47849 22.0012C9.52282 21.8952 9.54565 21.7815 9.54565 21.6666C9.54565 21.5518 9.52282 21.4381 9.47849 21.3321C9.43417 21.2262 9.36922 21.1301 9.28744 21.0494C9.20565 20.9688 9.10865 20.9052 9.00208 20.8624C8.8955 20.8196 8.78148 20.7983 8.66664 20.8H5.19997V17.3333C5.20156 17.2174 5.17987 17.1023 5.13617 16.9949C5.09248 16.8874 5.02767 16.7899 4.9456 16.708C4.86352 16.626 4.76584 16.5614 4.65834 16.5179C4.55084 16.4745 4.43571 16.453 4.31976 16.4548ZM21.6531 16.4548C21.4235 16.4584 21.2048 16.5529 21.0448 16.7176C20.8849 16.8823 20.7968 17.1037 20.8 17.3333V20.8H17.3333C17.2185 20.7983 17.1044 20.8196 16.9979 20.8624C16.8913 20.9052 16.7943 20.9688 16.7125 21.0494C16.6307 21.1301 16.5658 21.2262 16.5215 21.3321C16.4771 21.4381 16.4543 21.5518 16.4543 21.6666C16.4543 21.7815 16.4771 21.8952 16.5215 22.0012C16.5658 22.1071 16.6307 22.2032 16.7125 22.2838C16.7943 22.3645 16.8913 22.4281 16.9979 22.4709C17.1044 22.5137 17.2185 22.5349 17.3333 22.5333H20.8C21.7473 22.5333 22.5333 21.7473 22.5333 20.8V17.3333C22.5349 17.2174 22.5132 17.1023 22.4695 16.9949C22.4258 16.8874 22.361 16.7899 22.2789 16.708C22.1969 16.626 22.0992 16.5614 21.9917 16.5179C21.8842 16.4745 21.769 16.453 21.6531 16.4548Z" fill="#5B5B5B"/>
</svg>
