<svg width="25" height="25" viewBox="0 0 25 25" fill="none" xmlns="http://www.w3.org/2000/svg">
<path d="M6.40625 2.50003C6.13086 2.52542 5.92773 2.77151 5.95312 3.0469C5.97852 3.3223 6.22461 3.52542 6.5 3.50003H18.5C18.6797 3.50198 18.8477 3.40823 18.9395 3.25198C19.0293 3.09573 19.0293 2.90433 18.9395 2.74808C18.8477 2.59183 18.6797 2.49808 18.5 2.50003H6.5C6.48438 2.50003 6.46875 2.50003 6.45312 2.50003C6.4375 2.50003 6.42188 2.50003 6.40625 2.50003ZM3.90625 4.50003C3.63086 4.52542 3.42773 4.77151 3.45312 5.04691C3.47852 5.3223 3.72461 5.52542 4 5.50003H21C21.1797 5.50198 21.3477 5.40823 21.4395 5.25198C21.5293 5.09573 21.5293 4.90433 21.4395 4.74808C21.3477 4.59183 21.1797 4.49808 21 4.50003H4C3.98438 4.50003 3.96875 4.50003 3.95312 4.50003C3.9375 4.50003 3.92188 4.50003 3.90625 4.50003ZM1.5 6.50003C1.22266 6.50003 1 6.72464 1 7.00003V22C1 22.2754 1.22266 22.5 1.5 22.5H23.5C23.7773 22.5 24 22.2754 24 22V7.00003C24 6.72464 23.7773 6.50003 23.5 6.50003H1.5ZM10.0938 11.5L15.4062 14.5L10.0938 17.5V11.5Z" fill="#5B5B5B"/>
</svg>
