<svg width="32" height="31" viewBox="0 0 32 31" fill="none" xmlns="http://www.w3.org/2000/svg">
<path opacity="0.5" fill-rule="evenodd" clip-rule="evenodd" d="M0 15.5C0 6.93959 7.16344 0 16 0C24.8366 0 32 6.93959 32 15.5C32 24.0604 24.8366 31 16 31C7.16344 31 0 24.0604 0 15.5Z" fill="#00173A"/>
<path fill-rule="evenodd" clip-rule="evenodd" d="M24.5333 15.4886C24.5333 16.0477 24.4746 16.6059 24.3592 17.1501C24.2467 17.6814 24.08 18.203 23.8617 18.7016C23.6483 19.1914 23.3837 19.6634 23.0745 20.1035C22.77 20.5409 22.4191 20.9512 22.0337 21.3253C21.6474 21.6977 21.2224 22.0367 20.7711 22.333C20.3152 22.6304 19.8273 22.8864 19.3215 23.094C18.806 23.3044 18.2664 23.4657 17.7184 23.5745C17.1559 23.6866 16.5776 23.7438 15.9996 23.7438C15.4213 23.7438 14.8429 23.6866 14.2812 23.5745C13.7324 23.4657 13.1928 23.3044 12.6778 23.094C12.1719 22.8864 11.6836 22.6304 11.2277 22.333C10.7764 22.0367 10.3514 21.6977 9.96599 21.3253C9.58015 20.9512 9.22928 20.5409 8.92427 20.1035C8.61675 19.6634 8.35172 19.1913 8.13755 18.7016C7.91918 18.203 7.75211 17.6814 7.63919 17.1501C7.52503 16.6059 7.46667 16.0477 7.46667 15.4886C7.46667 14.9291 7.52499 14.3696 7.63922 13.8266C7.75215 13.2954 7.91922 12.773 8.13759 12.2752C8.35175 11.7851 8.61678 11.3126 8.9243 10.8725C9.22931 10.4347 9.58018 10.0252 9.96602 9.65069C10.3515 9.27823 10.7765 8.94007 11.2278 8.64421C11.6836 8.3455 12.172 8.08958 12.6778 7.88157C13.1929 7.67071 13.7324 7.5091 14.2812 7.40109C14.8429 7.28984 15.4213 7.2334 15.9997 7.2334C16.5776 7.2334 17.1559 7.28984 17.7185 7.40109C18.2664 7.50913 18.806 7.67074 19.3215 7.88157C19.8273 8.08955 20.3153 8.3455 20.7711 8.64421C21.2224 8.94007 21.6475 9.27823 22.0337 9.65069C22.4191 10.0252 22.77 10.4347 23.0746 10.8725C23.3837 11.3126 23.6483 11.7851 23.8617 12.2752C24.08 12.773 24.2467 13.2954 24.3592 13.8266C24.4746 14.3696 24.5333 14.9291 24.5333 15.4886ZM12.8903 9.11217C10.8581 10.0405 9.34131 11.852 8.86836 14.0351C9.06048 14.0367 12.0973 14.0738 15.5962 13.1745C14.3349 11.0067 12.9874 9.23757 12.8903 9.11217ZM16.2 14.26C12.4477 15.3467 8.84711 15.2685 8.71795 15.2637C8.71585 15.3395 8.71211 15.4128 8.71211 15.4886C8.71211 17.2996 9.41839 18.9507 10.5793 20.1991C10.5768 20.1954 12.5711 16.7728 16.5038 15.5426C16.5988 15.512 16.6955 15.4846 16.7913 15.458C16.6084 15.0573 16.4087 14.6558 16.2 14.26ZM20.8124 10.1977C19.5293 9.10329 17.8447 8.43946 15.9996 8.43946C15.4075 8.43946 14.8329 8.50879 14.2824 8.63697C14.3916 8.77887 15.7604 10.5355 17.0067 12.7492C19.7565 11.752 20.7944 10.2235 20.8124 10.1977ZM17.288 16.6261C17.2718 16.6313 17.2556 16.6358 17.2397 16.6414C12.94 18.0914 11.5358 21.0136 11.5206 21.0455C12.7578 21.9762 14.3096 22.5377 15.9996 22.5377C17.0088 22.5377 17.9701 22.339 18.8448 21.9791C18.7368 21.3632 18.3135 19.2042 17.288 16.6261ZM20.0719 21.3349C21.7082 20.2668 22.8703 18.5706 23.1945 16.6059C23.0445 16.5592 21.0057 15.9348 18.6535 16.2996C19.6093 18.8407 19.9977 20.9101 20.0719 21.3349ZM17.5676 13.7997C17.7368 14.1358 17.9006 14.478 18.0518 14.8219C18.1056 14.9452 18.1581 15.0662 18.2093 15.1871C20.7128 14.8823 23.1792 15.3951 23.2846 15.416C23.2679 13.7448 22.65 12.2111 21.6275 11.0103C21.6137 11.0292 20.4449 12.6629 17.5676 13.7997Z" fill="white"/>
</svg>
