<svg width="32" height="31" viewBox="0 0 32 31" fill="none" xmlns="http://www.w3.org/2000/svg">
<path opacity="0.5" fill-rule="evenodd" clip-rule="evenodd" d="M0 15.5C0 6.93959 7.16344 0 16 0C24.8366 0 32 6.93959 32 15.5C32 24.0604 24.8366 31 16 31C7.16344 31 0 24.0604 0 15.5Z" fill="#00173A"/>
<path fill-rule="evenodd" clip-rule="evenodd" d="M22.6677 10.1714C23.4021 10.3666 23.9804 10.9418 24.1767 11.6723C24.5333 12.9961 24.5333 15.7583 24.5333 15.7583C24.5333 15.7583 24.5333 18.5204 24.1767 19.8444C23.9804 20.5748 23.4021 21.15 22.6677 21.3453C21.3369 21.7 16 21.7 16 21.7C16 21.7 10.6631 21.7 9.33218 21.3453C8.59783 21.15 8.0195 20.5748 7.82323 19.8444C7.46667 18.5204 7.46667 15.7583 7.46667 15.7583C7.46667 15.7583 7.46667 12.9961 7.82323 11.6723C8.0195 10.9418 8.59783 10.3666 9.33218 10.1714C10.6631 9.81665 16 9.81665 16 9.81665C16 9.81665 21.3369 9.81665 22.6677 10.1714ZM14.4 13.4333V18.5999L18.6667 16.0167L14.4 13.4333Z" fill="white"/>
</svg>
