<svg width="18" height="16" viewBox="0 0 18 16" fill="none" xmlns="http://www.w3.org/2000/svg">
<g id="Group 275">
<path id="Rectangle 372 (Stroke)" fill-rule="evenodd" clip-rule="evenodd" d="M0 6.42918C0 2.87844 2.87844 0 6.42917 0H11.5708C15.1216 0 18 2.87844 18 6.42917V6.69176C18 10.2425 15.1216 13.1209 11.5708 13.1209H6.42917C2.87844 13.1209 0 10.2425 0 6.69177V6.42918ZM6.42917 2.14306C4.06202 2.14306 2.14306 4.06202 2.14306 6.42918V6.69177C2.14306 9.05892 4.06202 10.9779 6.42917 10.9779H11.5708C13.938 10.9779 15.8569 9.05892 15.8569 6.69176V6.42917C15.8569 4.06202 13.938 2.14306 11.5708 2.14306H6.42917Z" fill="white"/>
<path id="Vector 6 (Stroke)" fill-rule="evenodd" clip-rule="evenodd" d="M5.70825 5.2219C5.70825 4.75956 6.08305 4.38477 6.54538 4.38477H11.7389C12.2012 4.38477 12.576 4.75956 12.576 5.2219C12.576 5.68423 12.2012 6.05903 11.7389 6.05903H6.54538C6.08305 6.05903 5.70825 5.68423 5.70825 5.2219ZM7.39371 7.89883C7.39371 7.43649 7.76851 7.0617 8.23084 7.0617H11.7389C12.2012 7.0617 12.576 7.43649 12.576 7.89883C12.576 8.36117 12.2012 8.73596 11.7389 8.73596H8.23084C7.76851 8.73596 7.39371 8.36117 7.39371 7.89883Z" fill="white"/>
<path id="Vector 7" d="M9.96193 15.0508C9.76394 13.9929 9.54616 12.8131 9.42211 12.0977C9.35891 11.7333 9.61352 11.5031 9.97439 11.5842L12.5556 12.1641C13.0469 12.2745 13.2452 12.8673 12.9193 13.2511L11.1285 15.3595C10.7641 15.7886 10.0655 15.6042 9.96193 15.0508Z" fill="white"/>
</g>
</svg>
