<svg width="15" height="15" viewBox="0 0 15 15" fill="none" xmlns="http://www.w3.org/2000/svg">
<g id="settings">
<path id="Vector" d="M14.1298 7.5C14.1298 7.44467 14.1291 7.3891 14.1277 7.3334C14.1234 7.16465 14.1887 7.00036 14.3144 6.8864L14.7461 6.49509C14.8599 6.39193 14.9114 6.23763 14.8822 6.0876C14.8227 5.78221 14.7434 5.47767 14.6465 5.18244C14.5497 4.88722 14.4331 4.59466 14.3 4.31282C14.2346 4.17444 14.1013 4.07962 13.9481 4.06242L13.3668 3.99719C13.1976 3.9782 13.0473 3.88339 12.9506 3.74454C12.887 3.65319 12.821 3.56336 12.7528 3.47521C12.649 3.3411 12.6042 3.17001 12.6383 3.00446L12.7553 2.43636C12.7862 2.28669 12.7363 2.13189 12.6237 2.02755C12.3944 1.81521 12.1496 1.61496 11.8959 1.43241C11.6423 1.24989 11.3743 1.08105 11.0994 0.930645C10.9644 0.856757 10.8003 0.857633 10.6661 0.932959L10.1586 1.21783C10.0101 1.30114 9.83201 1.3118 9.67113 1.25556C9.56506 1.21848 9.45801 1.18405 9.35016 1.15234C9.18654 1.10422 9.04867 0.991865 8.97799 0.837987L8.73633 0.311844C8.67245 0.172769 8.54021 0.0765477 8.38713 0.0577441C8.07543 0.0194238 7.7585 0 7.44512 0C7.13174 0 6.81481 0.0194238 6.50312 0.0577441C6.35003 0.0765477 6.2178 0.172769 6.15392 0.311843L5.91223 0.838017C5.84156 0.991878 5.70372 1.10423 5.54012 1.15234C5.43226 1.18406 5.32519 1.21849 5.2191 1.25558C5.05823 1.3118 4.88012 1.30114 4.7317 1.21784L4.22411 0.932959C4.0899 0.857633 3.92582 0.856757 3.7908 0.930645C3.51596 1.08105 3.24798 1.24986 2.9944 1.43238C2.74068 1.61496 2.49581 1.81521 2.26654 2.02755C2.1539 2.13189 2.10405 2.28669 2.13489 2.43636L2.25195 3.00445C2.28606 3.17001 2.24126 3.3411 2.13748 3.47521C2.06927 3.56334 2.00329 3.65315 1.93966 3.74448C1.84289 3.88337 1.69261 3.97823 1.52331 3.99722L0.942185 4.06243C0.788909 4.07963 0.65565 4.17444 0.590261 4.31282C0.457159 4.59454 0.340562 4.88713 0.243693 5.18238C0.146795 5.47775 0.0675255 5.78232 0.00804381 6.08766C-0.0211773 6.23765 0.0303524 6.39191 0.144128 6.49505L0.575868 6.8864C0.701591 7.00036 0.766888 7.16465 0.762586 7.3334C0.761166 7.3891 0.760453 7.44467 0.760453 7.5C0.760453 7.55535 0.761166 7.61092 0.762586 7.66661C0.766889 7.83535 0.701595 7.99963 0.575879 8.1136L0.144155 8.50495C0.0303807 8.60808 -0.0211478 8.76235 0.0080734 8.91234C0.0675551 9.21771 0.146795 9.52225 0.243723 9.81759C0.340562 10.1129 0.457188 10.4054 0.59029 10.6872C0.65568 10.8256 0.788938 10.9204 0.942214 10.9376L1.52337 11.0028C1.69265 11.0218 1.84293 11.1166 1.93968 11.2555C2.00332 11.3468 2.0693 11.4366 2.13751 11.5248C2.24129 11.6589 2.28609 11.83 2.25198 11.9955L2.13492 12.5636C2.10408 12.7133 2.15393 12.8681 2.26657 12.9725C2.49583 13.1848 2.74071 13.385 2.9944 13.5676C3.24801 13.7501 3.51599 13.9189 3.79083 14.0694C3.92585 14.1432 4.08993 14.1424 4.22414 14.067L4.73174 13.7822C4.88015 13.6989 5.05826 13.6882 5.21912 13.7444C5.3252 13.7815 5.43227 13.8159 5.54012 13.8477C5.70373 13.8958 5.8416 14.0081 5.91228 14.162L6.15395 14.6881C6.21783 14.8272 6.35004 14.9234 6.50312 14.9422C6.81472 14.9806 7.13162 15 7.44512 15C7.75862 15 8.07552 14.9806 8.38716 14.9422C8.54023 14.9234 8.67244 14.8272 8.73632 14.6881L8.97801 14.162C9.04868 14.0081 9.18652 13.8958 9.35012 13.8477C9.45798 13.8159 9.56504 13.7815 9.67112 13.7444C9.832 13.6882 10.0101 13.6989 10.1586 13.7822L10.6661 14.067C10.8003 14.1424 10.9644 14.1432 11.0994 14.0694C11.3743 13.9189 11.6423 13.7501 11.8958 13.5676C12.1496 13.385 12.3944 13.1848 12.6237 12.9725C12.7363 12.8681 12.7862 12.7133 12.7553 12.5636L12.6383 11.9955C12.6042 11.83 12.649 11.6589 12.7528 11.5248C12.821 11.4367 12.887 11.3468 12.9506 11.2555C13.0473 11.1166 13.1976 11.0218 13.3669 11.0028L13.9481 10.9376C14.1013 10.9204 14.2346 10.8256 14.3 10.6872C14.4331 10.4054 14.5497 10.1128 14.6465 9.81762C14.7434 9.52233 14.8227 9.21776 14.8822 8.9124C14.9114 8.76239 14.8599 8.60811 14.7461 8.50496L14.3144 8.1136C14.1886 7.99963 14.1234 7.83535 14.1277 7.66661C14.1291 7.61092 14.1298 7.55535 14.1298 7.5ZM2.53514 7.5C2.53514 4.8184 4.73777 2.63672 7.44512 2.63672C10.1525 2.63672 12.3551 4.8184 12.3551 7.5C12.3551 10.1816 10.1525 12.3633 7.44512 12.3633C4.73777 12.3633 2.53514 10.1816 2.53514 7.5Z" fill="white"/>
</g>
</svg>
