<svg width="23" height="23" viewBox="0 0 23 23" fill="none" xmlns="http://www.w3.org/2000/svg">
<g id="add 1">
<path id="Vector" d="M21.0832 11.5001C21.0832 16.7925 16.7922 21.0834 11.4998 21.0834C6.20744 21.0834 1.9165 16.7925 1.9165 11.5001C1.9165 6.20769 6.20744 1.91675 11.4998 1.91675C16.7922 1.91675 21.0832 6.20769 21.0832 11.5001Z" fill="url(#paint0_linear_0_52)"/>
<path id="Vector_2" opacity="0.05" d="M16.2917 10.0625H12.9375V6.70833C12.9375 6.17885 12.5086 5.75 11.9792 5.75H11.0208C10.4914 5.75 10.0625 6.17885 10.0625 6.70833V10.0625H6.70833C6.17885 10.0625 5.75 10.4914 5.75 11.0208V11.9792C5.75 12.5086 6.17885 12.9375 6.70833 12.9375H10.0625V16.2917C10.0625 16.8211 10.4914 17.25 11.0208 17.25H11.9792C12.5086 17.25 12.9375 16.8211 12.9375 16.2917V12.9375H16.2917C16.8211 12.9375 17.25 12.5086 17.25 11.9792V11.0208C17.25 10.4914 16.8211 10.0625 16.2917 10.0625Z" fill="black"/>
<path id="Vector_3" opacity="0.07" d="M16.2918 10.302H12.6981V6.70825C12.6981 6.3115 12.3761 5.9895 11.9793 5.9895H11.021C10.6242 5.9895 10.3022 6.3115 10.3022 6.70825V10.302H6.7085C6.31175 10.302 5.98975 10.624 5.98975 11.0208V11.9791C5.98975 12.3758 6.31175 12.6978 6.7085 12.6978H10.3022V16.2916C10.3022 16.6883 10.6242 17.0103 11.021 17.0103H11.9793C12.3761 17.0103 12.6981 16.6883 12.6981 16.2916V12.6978H16.2918C16.6886 12.6978 17.0106 12.3758 17.0106 11.9791V11.0208C17.0106 10.624 16.6886 10.302 16.2918 10.302Z" fill="black"/>
<path id="Vector_4" d="M11.0207 6.22925H11.979C12.2435 6.22925 12.4582 6.44391 12.4582 6.70841V16.2917C12.4582 16.5562 12.2435 16.7709 11.979 16.7709H11.0207C10.7562 16.7709 10.5415 16.5562 10.5415 16.2917V6.70841C10.5415 6.44391 10.7562 6.22925 11.0207 6.22925Z" fill="white"/>
<path id="Vector_5" d="M16.7707 11.0209V11.9792C16.7707 12.2437 16.556 12.4584 16.2915 12.4584H6.70817C6.44367 12.4584 6.229 12.2437 6.229 11.9792V11.0209C6.229 10.7564 6.44367 10.5417 6.70817 10.5417H16.2915C16.556 10.5417 16.7707 10.7564 16.7707 11.0209Z" fill="white"/>
</g>
<defs>
<linearGradient id="paint0_linear_0_52" x1="4.72346" y1="4.72371" x2="18.2762" y2="18.2765" gradientUnits="userSpaceOnUse">
<stop stop-color="#21AD64"/>
<stop offset="1" stop-color="#088242"/>
</linearGradient>
</defs>
</svg>
