<svg width="25" height="25" viewBox="0 0 25 25" fill="none" xmlns="http://www.w3.org/2000/svg">
<path d="M21.8752 20.8333H3.12516C2.55225 20.8333 2.0835 20.3646 2.0835 19.7917V8.85417C2.0835 8.28125 2.55225 7.8125 3.12516 7.8125H21.8752C22.4481 7.8125 22.9168 8.28125 22.9168 8.85417V19.7917C22.9168 20.3646 22.4481 20.8333 21.8752 20.8333Z" fill="url(#paint0_linear_0_207)"/>
<path d="M20.0519 17.1875H4.94775C4.5165 17.1875 4.1665 16.8375 4.1665 16.4062C4.1665 15.975 4.5165 15.625 4.94775 15.625H20.0519C20.4832 15.625 20.8332 15.975 20.8332 16.4062C20.8332 16.8375 20.4832 17.1875 20.0519 17.1875Z" fill="#252525"/>
<path d="M18.229 22.3959H6.77067C6.19515 22.3959 5.729 21.9298 5.729 21.3542V16.6667H19.2707V21.3542C19.2707 21.9298 18.8045 22.3959 18.229 22.3959Z" fill="#FF4444"/>
<path d="M20.8332 7.81242H4.1665V5.72909C4.1665 5.44159 4.39984 5.20825 4.68734 5.20825H20.3123C20.5998 5.20825 20.8332 5.44159 20.8332 5.72909V7.81242Z" fill="#364F72"/>
<path d="M6.77067 2.60425H18.229C18.8045 2.60425 19.2707 3.07039 19.2707 3.64591V7.81258H5.729V3.64591C5.729 3.07039 6.19515 2.60425 6.77067 2.60425Z" fill="#FC5245"/>
<path d="M19.2707 15.625H5.729V16.6667H19.2707V15.625Z" fill="#364F72"/>
<path d="M19.7697 12.5125C20.345 12.5125 20.8114 12.0462 20.8114 11.4709C20.8114 10.8956 20.345 10.4292 19.7697 10.4292C19.1944 10.4292 18.728 10.8956 18.728 11.4709C18.728 12.0462 19.1944 12.5125 19.7697 12.5125Z" fill="#EEF2F3"/>
<path d="M19.7918 11.9792C20.0795 11.9792 20.3127 11.746 20.3127 11.4583C20.3127 11.1707 20.0795 10.9375 19.7918 10.9375C19.5042 10.9375 19.271 11.1707 19.271 11.4583C19.271 11.746 19.5042 11.9792 19.7918 11.9792Z" fill="url(#paint1_linear_0_207)"/>
<defs>
<linearGradient id="paint0_linear_0_207" x1="12.5002" y1="7.7" x2="12.5002" y2="20.7812" gradientUnits="userSpaceOnUse">
<stop offset="0.9" stop-color="#6D7882"/>
<stop offset="0.917" stop-color="#45494D"/>
</linearGradient>
<linearGradient id="paint1_linear_0_207" x1="19.4403" y1="11.1073" x2="20.2153" y2="11.8823" gradientUnits="userSpaceOnUse">
<stop stop-color="#32BDEF"/>
<stop offset="1" stop-color="#1EA2E4"/>
</linearGradient>
</defs>
</svg>
