<svg width="24" height="24" viewBox="0 0 24 24" fill="none" xmlns="http://www.w3.org/2000/svg">
<g clip-path="url(#clip0_0_234)">
<path d="M16.875 3C17.7034 3 18.375 2.32838 18.375 1.5C18.375 0.671625 17.7034 0 16.875 0C16.0466 0 15.375 0.671625 15.375 1.5C15.375 2.32838 16.0466 3 16.875 3Z" fill="url(#paint0_radial_0_234)"/>
<path d="M23.25 17.8125C23.25 16.8806 22.4944 16.125 21.5625 16.125H12C11.5856 16.125 11.25 15.7894 11.25 15.375V8.25C11.25 7.83563 11.5856 7.5 12 7.5H15.75C16.5784 7.5 17.25 6.82837 17.25 6C17.25 5.17163 16.5784 4.5 15.75 4.5H12C11.5856 4.5 11.25 4.16437 11.25 3.75C11.25 3.33562 11.5856 3 12 3H12.375C13.2034 3 13.875 2.32838 13.875 1.5C13.875 0.671625 13.2034 0 12.375 0H3.1875C2.04825 0 1.125 0.92325 1.125 2.0625C1.125 3.20175 2.04825 4.125 3.1875 4.125H4.3125C5.45175 4.125 6.375 5.04825 6.375 6.1875C6.375 7.32675 5.45175 8.25 4.3125 8.25H2.0625C0.92325 8.25 0 9.17325 0 10.3125C0 11.4517 0.92325 12.375 2.0625 12.375H5.25C5.87138 12.375 6.375 12.8786 6.375 13.5C6.375 14.1214 5.87138 14.625 5.25 14.625H2.4375C1.50563 14.625 0.75 15.3806 0.75 16.3125C0.75 17.2444 1.50563 18 2.4375 18H5.25C6.07837 18 6.75 18.6716 6.75 19.5C6.75 20.3284 6.07837 21 5.25 21H4.875C4.04663 21 3.375 21.6716 3.375 22.5C3.375 23.3284 4.04663 24 4.875 24H19.875C20.7034 24 21.375 23.3284 21.375 22.5C21.375 21.6716 20.7034 21 19.875 21H18.75C18.3356 21 18 20.6644 18 20.25C18 19.8356 18.3356 19.5 18.75 19.5H21.5625C22.4944 19.5 23.25 18.7444 23.25 17.8125Z" fill="url(#paint1_radial_0_234)"/>
<path d="M9.75 4.875C9.75 4.04662 9.07837 3.375 8.25 3.375H4.5C3.67162 3.375 3 4.04662 3 4.875V17.625C3 18.6604 3.83963 19.5 4.875 19.5H19.125C20.1604 19.5 21 18.6604 21 17.625V7.875C21 6.83963 20.1604 6 19.125 6H10.875C10.2536 6 9.75 5.49638 9.75 4.875Z" fill="url(#paint2_linear_0_234)"/>
<path d="M4.875 6H19.125C20.1604 6 21 6.83963 21 7.875V17.625C21 18.6604 20.1604 19.5 19.125 19.5H4.875C3.83963 19.5 3 18.6604 3 17.625V7.875C3 6.83963 3.83963 6 4.875 6Z" fill="url(#paint3_linear_0_234)"/>
<path d="M17.25 7.3125C17.25 6.58763 16.6624 6 15.9375 6H4.875C3.83963 6 3 6.83963 3 7.875V8.625V11.625V14.25V16.875V17.625C3 18.6604 3.83963 19.5 4.875 19.5H9.5625C10.2874 19.5 10.875 18.9124 10.875 18.1875C10.875 17.4626 10.2874 16.875 9.5625 16.875H8.4375C7.71263 16.875 7.125 16.2874 7.125 15.5625C7.125 14.8376 7.71263 14.25 8.4375 14.25H10.6875C11.4124 14.25 12 13.6624 12 12.9375C12 12.2126 11.4124 11.625 10.6875 11.625H9.375C8.54663 11.625 7.875 10.9534 7.875 10.125C7.875 9.29662 8.54663 8.625 9.375 8.625H15.9375C16.6624 8.625 17.25 8.03737 17.25 7.3125Z" fill="url(#paint4_linear_0_234)"/>
<path d="M15.1875 14.25C15.9124 14.25 16.5 13.6624 16.5 12.9375C16.5 12.2126 15.9124 11.625 15.1875 11.625C14.4626 11.625 13.875 12.2126 13.875 12.9375C13.875 13.6624 14.4626 14.25 15.1875 14.25Z" fill="url(#paint5_linear_0_234)"/>
<path d="M15 16.5C15 16.9144 14.6644 17.25 14.25 17.25H9.75C9.33562 17.25 9 16.9144 9 16.5C9 16.0856 9.33562 15.75 9.75 15.75H14.25C14.6644 15.75 15 16.0856 15 16.5ZM11.5312 14.8031C11.7889 15.066 12.2111 15.066 12.4688 14.8031L14.5012 12.7305C14.7675 12.4586 14.5759 12 14.196 12H13.125V9.75C13.125 9.33562 12.7894 9 12.375 9H11.625C11.2106 9 10.875 9.33562 10.875 9.75V12H9.804C9.4245 12 9.2325 12.4586 9.49875 12.7301L11.5312 14.8031Z" fill="url(#paint6_linear_0_234)"/>
</g>
<defs>
<radialGradient id="paint0_radial_0_234" cx="0" cy="0" r="1" gradientUnits="userSpaceOnUse" gradientTransform="translate(11.2969 10.1719) scale(12.6371)">
<stop stop-color="#C5F1FF"/>
<stop offset="0.35" stop-color="#CDF3FF"/>
<stop offset="0.907" stop-color="#E4FAFF"/>
<stop offset="1" stop-color="#E9FBFF"/>
</radialGradient>
<radialGradient id="paint1_radial_0_234" cx="0" cy="0" r="1" gradientUnits="userSpaceOnUse" gradientTransform="translate(11.625 12) scale(11.814)">
<stop stop-color="#C5F1FF"/>
<stop offset="0.35" stop-color="#CDF3FF"/>
<stop offset="0.907" stop-color="#E4FAFF"/>
<stop offset="1" stop-color="#E9FBFF"/>
</radialGradient>
<linearGradient id="paint2_linear_0_234" x1="12" y1="15.3727" x2="12" y2="-0.75225" gradientUnits="userSpaceOnUse">
<stop stop-color="#FF8B67"/>
<stop offset="0.847" stop-color="#FFA76A"/>
<stop offset="1" stop-color="#FFAD6B"/>
</linearGradient>
<linearGradient id="paint3_linear_0_234" x1="12" y1="19.5" x2="12" y2="6" gradientUnits="userSpaceOnUse">
<stop stop-color="#FFC050"/>
<stop offset="0.004" stop-color="#FFC050"/>
<stop offset="0.641" stop-color="#FFBE75"/>
<stop offset="1" stop-color="#FFBD85"/>
</linearGradient>
<linearGradient id="paint4_linear_0_234" x1="10.125" y1="19.5" x2="10.125" y2="6" gradientUnits="userSpaceOnUse">
<stop stop-color="#FFC96A"/>
<stop offset="0.004" stop-color="#FFC96A"/>
<stop offset="0.578" stop-color="#FFC887"/>
<stop offset="1" stop-color="#FFC797"/>
</linearGradient>
<linearGradient id="paint5_linear_0_234" x1="15.1875" y1="14.25" x2="15.1875" y2="11.625" gradientUnits="userSpaceOnUse">
<stop stop-color="#FFC96A"/>
<stop offset="0.004" stop-color="#FFC96A"/>
<stop offset="0.578" stop-color="#FFC887"/>
<stop offset="1" stop-color="#FFC797"/>
</linearGradient>
<linearGradient id="paint6_linear_0_234" x1="12" y1="17.637" x2="12" y2="4.22475" gradientUnits="userSpaceOnUse">
<stop stop-color="#31995F"/>
<stop offset="0.093" stop-color="#329E62"/>
<stop offset="0.666" stop-color="#39BA71"/>
<stop offset="1" stop-color="#3BC477"/>
</linearGradient>
<clipPath id="clip0_0_234">
<rect width="24" height="24" fill="white"/>
</clipPath>
</defs>
</svg>
