<svg width="20" height="20" viewBox="0 0 20 20" fill="none" xmlns="http://www.w3.org/2000/svg">
<g clip-path="url(#clip0_0_216)">
<path d="M0.75 3.75H16.25V19.25H0.75V3.75Z" fill="#F2FAFF"/>
<path d="M16 4V19H1V4H16ZM16.5 3.5H0.5V19.5H16.5V3.5Z" fill="#788B9C"/>
<path d="M16.5 4.8335H15.1665V9.5L16.5 8.1665V4.8335ZM15.1665 3.5V4.8335H10.5L11.8335 3.5H15.1665Z" fill="#F2FAFF"/>
<path d="M7.09452 10.82L8.23602 9.67798L10.472 11.6255L9.19152 12.9065L5.91602 14.0845L7.09452 10.82Z" fill="#F5CE85"/>
<path d="M8.248 10.0199L10.1065 11.6384L9.0545 12.6904L6.3315 13.6699L7.311 10.9574L8.248 10.0199ZM8.2245 9.33643L6.8785 10.6824L5.5 14.4999L9.329 13.1229L10.8385 11.6134L8.2245 9.33643Z" fill="#967A44"/>
<path d="M5.5 14.5L7.7535 13.6895L6.312 12.2505L5.5 14.5Z" fill="#36404D"/>
<path d="M15.7339 2.174L16.7244 1.1835C17.0039 0.904 17.3754 0.75 17.7709 0.75C18.1664 0.75 18.5374 0.904 18.8169 1.1835C19.0964 1.463 19.2499 1.834 19.2499 2.229C19.2499 2.624 19.0959 2.9955 18.8164 3.275L17.8259 4.2655L15.7339 2.174Z" fill="#F78F8F"/>
<path d="M17.7704 1C18.0989 1 18.4074 1.128 18.6394 1.36C19.1189 1.8395 19.1189 2.619 18.6394 3.0985L17.8259 3.912L16.0874 2.1735L16.9009 1.36C17.1334 1.128 17.4424 1 17.7704 1ZM17.7704 0.5C17.3279 0.5 16.8854 0.669 16.5474 1.0065L15.3804 2.1735L17.8259 4.619L18.9929 3.452C19.6684 2.7765 19.6684 1.682 18.9929 1.0065C18.6559 0.669 18.2134 0.5 17.7704 0.5Z" fill="#C74343"/>
<path d="M9.49205 12.6055C9.46305 12.5455 9.42555 12.485 9.37655 12.428C9.23605 12.2635 9.03905 12.162 8.78905 12.1245C8.69205 11.562 8.24755 11.318 7.89305 11.2405C7.83105 10.868 7.61205 10.654 7.37305 10.5405L15.0105 2.89697L17.1025 4.98897L9.49205 12.6055Z" fill="#FFEEA3"/>
<path d="M15.0109 3.25096L16.7494 4.98946L9.52443 12.2195C9.41243 12.1035 9.24343 11.9815 8.99493 11.9135C8.84943 11.437 8.47393 11.1625 8.10193 11.04C8.03543 10.8155 7.91543 10.637 7.76493 10.5025L15.0109 3.25096ZM15.0109 2.54346L6.87793 10.6825C6.87793 10.6825 6.88143 10.6825 6.88743 10.6825C6.97643 10.6825 7.65993 10.707 7.65993 11.462C7.65993 11.462 8.55793 11.49 8.55793 12.3585C9.45093 12.3585 9.32843 13.123 9.32843 13.123L17.4564 4.98896L15.0109 2.54346Z" fill="#BA9B48"/>
<path d="M15.0483 2.86035L16.3507 1.5584L18.4423 3.65066L17.14 4.95262L15.0483 2.86035Z" fill="#D9E7F5"/>
<path d="M16.3498 1.9116L18.0883 3.6501L17.1398 4.5986L15.4013 2.8601L16.3498 1.9116ZM16.3498 1.2041L14.6943 2.8601L17.1398 5.3056L18.7958 3.6501L16.3498 1.2041Z" fill="#788B9C"/>
</g>
<defs>
<clipPath id="clip0_0_216">
<rect width="20" height="20" fill="white"/>
</clipPath>
</defs>
</svg>
