<svg width="23" height="23" viewBox="0 0 23 23" fill="none" xmlns="http://www.w3.org/2000/svg">
<path d="M21.0833 11.5001C21.0833 16.7925 16.7924 21.0834 11.5 21.0834C6.20756 21.0834 1.91663 16.7925 1.91663 11.5001C1.91663 6.20769 6.20756 1.91675 11.5 1.91675C16.7924 1.91675 21.0833 6.20769 21.0833 11.5001Z" fill="url(#paint0_linear_0_2029)"/>
<path opacity="0.05" d="M16.2917 10.0625H12.9375V6.70833C12.9375 6.17885 12.5086 5.75 11.9792 5.75H11.0208C10.4914 5.75 10.0625 6.17885 10.0625 6.70833V10.0625H6.70833C6.17885 10.0625 5.75 10.4914 5.75 11.0208V11.9792C5.75 12.5086 6.17885 12.9375 6.70833 12.9375H10.0625V16.2917C10.0625 16.8211 10.4914 17.25 11.0208 17.25H11.9792C12.5086 17.25 12.9375 16.8211 12.9375 16.2917V12.9375H16.2917C16.8211 12.9375 17.25 12.5086 17.25 11.9792V11.0208C17.25 10.4914 16.8211 10.0625 16.2917 10.0625Z" fill="black"/>
<path opacity="0.07" d="M16.2917 10.302H12.698V6.70825C12.698 6.3115 12.376 5.9895 11.9792 5.9895H11.0209C10.6241 5.9895 10.3021 6.3115 10.3021 6.70825V10.302H6.70837C6.31162 10.302 5.98962 10.624 5.98962 11.0208V11.9791C5.98962 12.3758 6.31162 12.6978 6.70837 12.6978H10.3021V16.2916C10.3021 16.6883 10.6241 17.0103 11.0209 17.0103H11.9792C12.376 17.0103 12.698 16.6883 12.698 16.2916V12.6978H16.2917C16.6885 12.6978 17.0105 12.3758 17.0105 11.9791V11.0208C17.0105 10.624 16.6885 10.302 16.2917 10.302Z" fill="black"/>
<path d="M11.0208 6.22925H11.9791C12.2436 6.22925 12.4583 6.44391 12.4583 6.70841V16.2917C12.4583 16.5562 12.2436 16.7709 11.9791 16.7709H11.0208C10.7563 16.7709 10.5416 16.5562 10.5416 16.2917V6.70841C10.5416 6.44391 10.7563 6.22925 11.0208 6.22925Z" fill="white"/>
<path d="M16.7708 11.0209V11.9792C16.7708 12.2437 16.5561 12.4584 16.2916 12.4584H6.70829C6.44379 12.4584 6.22913 12.2437 6.22913 11.9792V11.0209C6.22913 10.7564 6.44379 10.5417 6.70829 10.5417H16.2916C16.5561 10.5417 16.7708 10.7564 16.7708 11.0209Z" fill="white"/>
<defs>
<linearGradient id="paint0_linear_0_2029" x1="4.72358" y1="4.72371" x2="18.2763" y2="18.2765" gradientUnits="userSpaceOnUse">
<stop stop-color="#21AD64"/>
<stop offset="1" stop-color="#088242"/>
</linearGradient>
</defs>
</svg>
