<svg width="30" height="30" viewBox="0 0 30 30" fill="none" xmlns="http://www.w3.org/2000/svg">
<path d="M24.375 3.75H5.625C4.58938 3.75 3.75 4.58938 3.75 5.625V26.25L9.0975 21.25H24.375C25.41 21.25 26.25 20.41 26.25 19.375V5.625C26.25 4.58938 25.41 3.75 24.375 3.75Z" fill="#2196F3"/>
<path d="M14.1794 14.6625C14.1794 13.9562 14.2656 13.3931 14.4387 12.975C14.6119 12.5563 14.9287 12.1438 15.3894 11.7375C15.8494 11.3325 16.1562 11.0013 16.3094 10.7463C16.4619 10.4913 16.5375 10.2225 16.5375 9.93937C16.5375 9.08625 16.1406 8.66 15.3475 8.66C14.9706 8.66 14.67 8.775 14.4438 9.00437C14.2169 9.23437 14.0987 9.55125 14.0887 9.955H11.875C11.885 8.99188 12.1994 8.2375 12.8169 7.69188C13.435 7.14813 14.2781 6.875 15.3469 6.875C16.4256 6.875 17.2619 7.13375 17.8581 7.65125C18.4519 8.16812 18.75 8.8975 18.75 9.84125C18.75 10.2706 18.6537 10.675 18.46 11.0556C18.2662 11.4369 17.9281 11.8594 17.445 12.3238L16.8275 12.9062C16.4406 13.275 16.2194 13.7056 16.1631 14.2006L16.1325 14.6619L14.1794 14.6625ZM13.9581 16.9794C13.9581 16.6431 14.0744 16.3663 14.3056 16.1462C14.5375 15.9281 14.8331 15.8187 15.1944 15.8187C15.5556 15.8187 15.8519 15.9288 16.0831 16.1462C16.315 16.3663 16.4313 16.6431 16.4313 16.9794C16.4313 17.3106 16.3175 17.585 16.0912 17.8C15.865 18.0162 15.5663 18.125 15.1944 18.125C14.8225 18.125 14.5244 18.0162 14.2975 17.8C14.0712 17.585 13.9581 17.3106 13.9581 16.9794Z" fill="#E3F2FD"/>
</svg>
