<svg width="24" height="24" viewBox="0 0 24 24" fill="none" xmlns="http://www.w3.org/2000/svg">
<path d="M14 3.56445V4.57495C17.6635 5.06645 20.5 8.20395 20.5 12C20.5 15.796 17.6635 18.9335 14 19.4255V20.436C18.2165 19.9385 21.5 16.348 21.5 12C21.5 7.65195 18.2165 4.06145 14 3.56445Z" fill="#81D4FA"/>
<path d="M7 16H3.5C2.9475 16 2.5 15.5525 2.5 15V9C2.5 8.4475 2.9475 8 3.5 8H7V16Z" fill="#546E7A"/>
<path d="M13 21L7 16V8L13 3V21Z" fill="#78909C"/>
<path d="M14 8.64746V9.71196C14.8815 10.099 15.5 10.9775 15.5 12C15.5 13.0225 14.8815 13.9015 14 14.288V15.3525C15.4435 14.921 16.5 13.5825 16.5 12C16.5 10.418 15.4435 9.07896 14 8.64746Z" fill="#03A9F4"/>
<path d="M14 6.09058V7.10108C16.2795 7.56608 18 9.58608 18 12.0006C18 14.4156 16.2795 16.4351 14 16.9001V17.9106C16.833 17.4321 19 14.9671 19 12.0006C19 9.03258 16.833 6.56908 14 6.09058Z" fill="#4FC3F7"/>
</svg>
