<svg width="18" height="12" viewBox="0 0 18 12" fill="none" xmlns="http://www.w3.org/2000/svg">
<path d="M16.9088 4.46159L6.69242 3.69236V1.27048C6.69242 1.01808 6.56922 0.828774 6.32283 0.639471C6.07644 0.57637 5.83004 0.57637 5.64675 0.702571C3.12271 2.4694 0.721867 5.42913 0.661771 5.55534C0.601675 5.67553 0.544584 5.85582 0.541579 5.98202C0.541579 5.98502 0.538574 5.99103 0.538574 5.99404C0.538574 6.12024 0.59867 6.30954 0.661771 6.37264C0.721867 6.49885 3.06261 9.4676 5.64675 11.2344C5.89314 11.3606 6.13954 11.4237 6.32283 11.2975C6.56922 11.1713 6.69242 10.982 6.69242 10.7296V8.30774L16.9088 7.53851C17.2153 7.29211 17.4617 6.67312 17.4617 5.99404C17.4617 5.38106 17.2784 4.70798 16.9088 4.46159Z" fill="white"/>
</svg>
