<svg width="21" height="21" viewBox="0 0 21 21" fill="none" xmlns="http://www.w3.org/2000/svg">
<g clip-path="url(#clip0_0_1792)">
<path d="M7.97587 -6.01294e-05C7.85913 0.0188702 7.74555 0.0598858 7.64774 0.126142C7.64774 0.126142 6.62551 0.769772 5.52755 1.46388C4.42959 2.15799 3.20544 2.92467 2.92779 3.07927C2.91202 3.08558 2.89309 3.09504 2.87731 3.10451C1.86138 3.72921 1.65 4.75144 1.61529 5.32566C1.61214 5.3509 1.61529 5.37299 1.61529 5.40138C1.60583 5.61593 1.61529 5.75475 1.61529 5.75475V16.3052C1.61529 17.8386 3.40105 18.5769 5.09846 18.5769C5.66322 18.5769 6.22797 18.4854 6.71385 18.3245C7.03566 18.1636 7.26914 17.8386 7.26914 17.5168V9.036C7.26914 7.17767 7.67298 6.30373 8.88452 5.57806C9.20634 5.41716 12.5949 3.07927 12.5949 3.07927C12.7558 2.91836 12.923 2.59023 12.923 2.3473V2.27157C12.923 1.94976 12.7621 1.70051 12.5191 1.5396C12.2762 1.3787 11.9544 1.3787 11.7114 1.5396C11.6294 1.62164 6.70438 4.93759 5.65375 5.50234C4.60312 6.14913 3.62506 6.30373 3.38212 5.98191C3.3064 5.90619 3.24014 5.67587 3.23068 5.45186C3.23068 5.44555 3.23068 5.43293 3.23068 5.42662C3.23068 5.41716 3.23068 5.41085 3.23068 5.40138C3.23068 5.18053 3.28747 4.76722 3.73548 4.49273C4.18981 4.24032 5.31616 3.52097 6.41096 2.82686C6.87476 2.53344 6.93155 2.50189 7.29438 2.27157C7.39534 2.67858 7.78972 2.9436 8.20619 2.87734C8.6195 2.81109 8.91607 2.43879 8.88452 2.01917V0.807632C8.88768 0.574159 8.78671 0.353305 8.61319 0.198708C8.43966 0.0441105 8.20619 -0.0284556 7.97587 -6.01294e-05ZM14.4374 2.82686C14.308 2.84895 14.1882 2.89943 14.084 2.97831C14.084 2.97831 10.0172 5.71373 9.31361 6.18383C9.30414 6.1933 9.29783 6.19961 9.28837 6.20907C8.70468 6.64763 8.35763 7.16821 8.20303 7.64778C8.0926 7.98537 8.07683 8.26301 8.07683 8.48071C8.07683 8.57221 8.07683 8.67632 8.07683 8.73311C8.07683 8.75835 8.07683 8.78359 8.07683 8.80884V18.5769C8.07683 20.1102 9.84366 20.9999 11.459 20.9999C12.1847 20.9999 12.841 20.8422 13.3268 20.5204C14.2954 19.9556 18.9807 16.3052 18.9807 16.3052C19.2236 16.1443 19.3845 15.9172 19.3845 15.6742V5.17422C19.3845 4.77037 19.2268 4.52743 18.905 4.36653C18.662 4.20562 18.2645 4.28134 18.0215 4.44225C16.728 5.41085 13.2511 8.14627 12.4434 8.63215C11.3139 9.27894 10.2475 9.43984 9.84366 9.036C9.68275 8.87509 9.69221 8.72365 9.69221 8.48071C9.69852 8.34189 9.71114 8.222 9.74269 8.12734C9.78687 7.98537 9.88152 7.81184 10.2223 7.54682C10.238 7.5342 10.2317 7.5342 10.2475 7.52157C10.8312 7.1335 12.6169 5.91566 13.7812 5.12374C13.9168 5.48972 14.2954 5.70427 14.6803 5.63801C15.0621 5.5686 15.3429 5.23732 15.3461 4.84609V3.63456C15.3492 3.40108 15.2483 3.18023 15.0747 3.02563C14.9012 2.87103 14.6677 2.79847 14.4374 2.82686ZM17.7691 8.73311V10.3485L13.7307 13.4783V11.8629L17.7691 8.73311Z" fill="white"/>
</g>
<defs>
<clipPath id="clip0_0_1792">
<rect width="21" height="21" fill="white"/>
</clipPath>
</defs>
</svg>
