<svg width="17" height="17" viewBox="0 0 17 17" fill="none" xmlns="http://www.w3.org/2000/svg">
<g clip-path="url(#clip0_0_174)">
<path d="M16.7376 8.4999C16.7376 3.95107 13.0487 0.262207 8.4999 0.262207C3.95107 0.262207 0.262207 3.95107 0.262207 8.4999C0.262207 13.0487 3.95107 16.7376 8.4999 16.7376C13.0487 16.7376 16.7376 13.0487 16.7376 8.4999Z" fill="#32BEA6"/>
<path d="M13.0356 5.74093C12.843 5.23956 12.4479 5.31925 12.0195 5.40558C11.7639 5.45871 10.625 5.79074 8.82873 7.68996C8.08166 8.47687 7.59025 9.10441 7.26486 9.58253C7.06564 9.34015 6.83986 9.07785 6.6008 8.8421C5.86701 8.10831 5.04689 7.60363 5.01369 7.5837C4.67169 7.37453 4.22345 7.48078 4.01095 7.82609C3.80177 8.16808 3.90802 8.61632 4.25001 8.82882C4.25666 8.83214 4.96056 9.2671 5.56486 9.87472C6.18244 10.4923 6.74357 11.329 6.75021 11.339C6.88634 11.5448 7.11544 11.6644 7.35783 11.6644C7.39767 11.6644 7.44083 11.661 7.484 11.6544C7.76955 11.6046 7.99533 11.3921 8.06505 11.1132C8.06837 11.1066 8.35724 10.3064 9.88127 8.69933C11.1098 7.40109 11.9299 6.98937 12.2154 6.87648C12.2188 6.87648 12.2188 6.87648 12.2254 6.87648C12.2254 6.87648 12.2354 6.87316 12.252 6.8632C12.3018 6.84328 12.3283 6.83663 12.3283 6.83663C12.3151 6.83995 12.3084 6.83996 12.3084 6.83996V6.83663C12.4412 6.78019 12.6869 6.67394 12.6902 6.67062C13.0588 6.51124 13.1817 6.11281 13.0356 5.74093Z" fill="white"/>
</g>
<defs>
<clipPath id="clip0_0_174">
<rect width="17" height="17" fill="white"/>
</clipPath>
</defs>
</svg>
