<svg width="30" height="30" viewBox="0 0 30 30" fill="none" xmlns="http://www.w3.org/2000/svg">
<g id="create 1" clip-path="url(#clip0_0_1530)">
<path id="Vector" d="M1.125 5.625H24.375V28.875H1.125V5.625Z" fill="#F2FAFF"/>
<path id="Vector_2" d="M24 6V28.5H1.5V6H24ZM24.75 5.25H0.75V29.25H24.75V5.25Z" fill="#788B9C"/>
<path id="Vector_3" d="M24.75 7.25025H22.7498V14.25L24.75 12.2498V7.25025ZM22.7498 5.25V7.25025H15.75L17.7502 5.25H22.7498Z" fill="#F2FAFF"/>
<path id="Vector_4" d="M10.6418 16.2301L12.354 14.5171L15.708 17.4383L13.7873 19.3598L8.87402 21.1268L10.6418 16.2301Z" fill="#F5CE85"/>
<path id="Vector_5" d="M12.372 15.0299L15.1597 17.4576L13.5817 19.0356L9.49725 20.5049L10.9665 16.4361L12.372 15.0299ZM12.3367 14.0046L10.3177 16.0236L8.25 21.7499L13.9935 19.6844L16.2577 17.4201L12.3367 14.0046Z" fill="#967A44"/>
<path id="Vector_6" d="M8.25 21.75L11.6302 20.5342L9.468 18.3757L8.25 21.75Z" fill="#36404D"/>
<path id="Vector_7" d="M23.6011 3.261L25.0868 1.77525C25.5061 1.356 26.0633 1.125 26.6566 1.125C27.2498 1.125 27.8063 1.356 28.2256 1.77525C28.6448 2.1945 28.8751 2.751 28.8751 3.3435C28.8751 3.936 28.6441 4.49325 28.2248 4.9125L26.7391 6.39825L23.6011 3.261Z" fill="#F78F8F"/>
<path id="Vector_8" d="M26.6558 1.5C27.1486 1.5 27.6113 1.692 27.9593 2.04C28.6786 2.75925 28.6786 3.9285 27.9593 4.64775L26.7391 5.868L24.1313 3.26025L25.3515 2.04C25.7003 1.692 26.1638 1.5 26.6558 1.5ZM26.6558 0.75C25.9921 0.75 25.3283 1.0035 24.8213 1.50975L23.0708 3.26025L26.7391 6.9285L28.4896 5.178C29.5028 4.16475 29.5028 2.523 28.4896 1.50975C27.9841 1.0035 27.3203 0.75 26.6558 0.75Z" fill="#C74343"/>
<g id="Group">
<path id="Vector_9" d="M14.2381 18.9082C14.1946 18.8182 14.1383 18.7275 14.0648 18.642C13.8541 18.3952 13.5586 18.243 13.1836 18.1867C13.0381 17.343 12.3713 16.977 11.8396 16.8607C11.7466 16.302 11.4181 15.981 11.0596 15.8107L22.5158 4.34546L25.6538 7.48346L14.2381 18.9082Z" fill="#FFEEA3"/>
<path id="Vector_10" d="M22.5164 4.87644L25.1241 7.48419L14.2866 18.3292C14.1186 18.1552 13.8651 17.9722 13.4924 17.8702C13.2741 17.1554 12.7109 16.7437 12.1529 16.5599C12.0531 16.2232 11.8731 15.9554 11.6474 15.7537L22.5164 4.87644ZM22.5164 3.81519L10.3169 16.0237C10.3169 16.0237 10.3221 16.0237 10.3311 16.0237C10.4646 16.0237 11.4899 16.0604 11.4899 17.1929C11.4899 17.1929 12.8369 17.2349 12.8369 18.5377C14.1764 18.5377 13.9926 19.6844 13.9926 19.6844L26.1846 7.48344L22.5164 3.81519Z" fill="#BA9B48"/>
</g>
<g id="Group_2">
<path id="Vector_11" d="M22.5728 4.29028L24.5262 2.33735L27.6638 5.47575L25.7103 7.42868L22.5728 4.29028Z" fill="#D9E7F5"/>
<path id="Vector_12" d="M24.5252 2.86716L27.133 5.47491L25.7102 6.89766L23.1025 4.28991L24.5252 2.86716ZM24.5252 1.80591L22.042 4.28991L25.7102 7.95816L28.1942 5.47491L24.5252 1.80591Z" fill="#788B9C"/>
</g>
</g>
<defs>
<clipPath id="clip0_0_1530">
<rect width="30" height="30" fill="white"/>
</clipPath>
</defs>
</svg>
