<svg width="20" height="20" viewBox="0 0 20 20" fill="none" xmlns="http://www.w3.org/2000/svg">
<g id="create 1" clip-path="url(#clip0_0_2162)">
<path id="Vector" d="M0.75 3.75H16.25V19.25H0.75V3.75Z" fill="#F2FAFF"/>
<path id="Vector_2" d="M16 4V19H1V4H16ZM16.5 3.5H0.5V19.5H16.5V3.5Z" fill="#788B9C"/>
<path id="Vector_3" d="M16.5 4.8335H15.1665V9.5L16.5 8.1665V4.8335ZM15.1665 3.5V4.8335H10.5L11.8335 3.5H15.1665Z" fill="#F2FAFF"/>
<path id="Vector_4" d="M7.09452 10.82L8.23602 9.67798L10.472 11.6255L9.19152 12.9065L5.91602 14.0845L7.09452 10.82Z" fill="#F5CE85"/>
<path id="Vector_5" d="M8.248 10.0199L10.1065 11.6384L9.0545 12.6904L6.3315 13.6699L7.311 10.9574L8.248 10.0199ZM8.2245 9.33643L6.8785 10.6824L5.5 14.4999L9.329 13.1229L10.8385 11.6134L8.2245 9.33643Z" fill="#967A44"/>
<path id="Vector_6" d="M5.5 14.5L7.7535 13.6895L6.312 12.2505L5.5 14.5Z" fill="#36404D"/>
<path id="Vector_7" d="M15.734 2.174L16.7245 1.1835C17.004 0.904 17.3755 0.75 17.771 0.75C18.1665 0.75 18.5375 0.904 18.817 1.1835C19.0965 1.463 19.25 1.834 19.25 2.229C19.25 2.624 19.096 2.9955 18.8165 3.275L17.826 4.2655L15.734 2.174Z" fill="#F78F8F"/>
<path id="Vector_8" d="M17.7705 1C18.099 1 18.4075 1.128 18.6395 1.36C19.119 1.8395 19.119 2.619 18.6395 3.0985L17.826 3.912L16.0875 2.1735L16.901 1.36C17.1335 1.128 17.4425 1 17.7705 1ZM17.7705 0.5C17.328 0.5 16.8855 0.669 16.5475 1.0065L15.3805 2.1735L17.826 4.619L18.993 3.452C19.6685 2.7765 19.6685 1.682 18.993 1.0065C18.656 0.669 18.2135 0.5 17.7705 0.5Z" fill="#C74343"/>
<g id="Group">
<path id="Vector_9" d="M9.49205 12.6055C9.46305 12.5455 9.42555 12.485 9.37655 12.428C9.23605 12.2635 9.03905 12.162 8.78905 12.1245C8.69205 11.562 8.24755 11.318 7.89305 11.2405C7.83105 10.868 7.61205 10.654 7.37305 10.5405L15.0105 2.89697L17.1025 4.98897L9.49205 12.6055Z" fill="#FFEEA3"/>
<path id="Vector_10" d="M15.0111 3.25096L16.7496 4.98946L9.52455 12.2195C9.41255 12.1035 9.24355 11.9815 8.99505 11.9135C8.84955 11.437 8.47405 11.1625 8.10205 11.04C8.03555 10.8155 7.91555 10.637 7.76505 10.5025L15.0111 3.25096ZM15.0111 2.54346L6.87805 10.6825C6.87805 10.6825 6.88155 10.6825 6.88755 10.6825C6.97655 10.6825 7.66005 10.707 7.66005 11.462C7.66005 11.462 8.55805 11.49 8.55805 12.3585C9.45105 12.3585 9.32855 13.123 9.32855 13.123L17.4566 4.98896L15.0111 2.54346Z" fill="#BA9B48"/>
</g>
<g id="Group_2">
<path id="Vector_11" d="M15.0482 2.86035L16.3505 1.5584L18.4422 3.65066L17.1399 4.95262L15.0482 2.86035Z" fill="#D9E7F5"/>
<path id="Vector_12" d="M16.35 1.9116L18.0885 3.6501L17.14 4.5986L15.4015 2.8601L16.35 1.9116ZM16.35 1.2041L14.6945 2.8601L17.14 5.3056L18.796 3.6501L16.35 1.2041Z" fill="#788B9C"/>
</g>
</g>
<defs>
<clipPath id="clip0_0_2162">
<rect width="20" height="20" fill="white"/>
</clipPath>
</defs>
</svg>
