<svg width="25" height="25" viewBox="0 0 25 25" fill="none" xmlns="http://www.w3.org/2000/svg">
<path d="M9.89583 14.5833V21.0938C9.89583 21.3865 10.0594 21.6547 10.3193 21.7885C10.4323 21.8464 10.5547 21.875 10.6771 21.875C10.837 21.875 10.9964 21.826 11.1312 21.7297L14.7771 19.1255C14.9823 18.9786 15.1042 18.7417 15.1042 18.4896V14.5833H9.89583ZM20.5729 3.125H4.42708C3.70937 3.125 3.125 3.70937 3.125 4.42708V6.03594C3.125 7.24062 3.66771 8.35885 4.61354 9.10417L9.5849 13.0208H15.4146L20.3859 9.10417C21.3323 8.35885 21.875 7.2401 21.875 6.03594V4.42708C21.875 3.70937 21.2906 3.125 20.5729 3.125Z" fill="black"/>
</svg>
