<svg width="20" height="20" viewBox="0 0 20 20" fill="none" xmlns="http://www.w3.org/2000/svg">
<g clip-path="url(#clip0_0_167)">
<path d="M19.6717 7.00938C19.6811 7.06875 19.6874 7.12813 19.6874 7.1875C19.6874 7.70625 19.2686 8.125 18.7499 8.125H15.6249C15.3655 8.125 15.1311 8.23125 14.9624 8.4C14.7936 8.56875 14.6874 8.80313 14.6874 9.0625C14.6874 9.32187 14.7936 9.55625 14.9624 9.725C15.1311 9.89375 15.3655 10 15.6249 10H16.2499C16.9811 10 17.5655 10.6281 17.4936 11.3719C17.4311 12.0219 16.8499 12.5 16.1967 12.5H13.2811C13.0655 12.5 12.8686 12.5875 12.728 12.7281C12.5874 12.8687 12.4999 13.0656 12.4999 13.2812C12.4999 13.7125 12.8499 14.0625 13.2811 14.0625H13.4374C13.9717 14.0625 14.3999 14.5063 14.3749 15.05C14.3467 15.5562 13.8936 15.9375 13.3874 15.9375H11.7186C11.2624 15.9375 10.8999 16.325 10.9405 16.7906C10.9749 17.2 11.3499 17.5 11.7624 17.5H11.8749C12.4092 17.5 12.8374 17.9438 12.8124 18.4875C12.7842 18.9937 12.3311 19.375 11.8249 19.375H0.937354C0.224854 19.375 -0.297021 18.5875 0.187354 17.8344C0.343604 17.5938 0.631104 17.4937 0.918604 17.5C1.09985 17.5031 1.26235 17.4344 1.37798 17.3156C1.4936 17.2031 1.56235 17.0469 1.56235 16.875C1.56235 16.5312 1.2811 16.25 0.937354 16.25C0.677979 16.25 0.443604 16.1437 0.274854 15.975C0.0904794 15.7906 -0.0188956 15.5312 0.00297945 15.2437C0.0373544 14.7437 0.490479 14.375 0.990479 14.375H1.7186C2.17485 14.375 2.53735 13.9875 2.49673 13.5219C2.46235 13.1125 2.08735 12.8125 1.67485 12.8125H1.0936C0.637354 12.8125 0.274854 12.425 0.315479 11.9594C0.349854 11.55 0.724854 11.25 1.13735 11.25H2.0311C2.24673 11.25 2.4436 11.1625 2.58423 11.0219C2.71548 10.8906 2.79985 10.7125 2.81235 10.5156C2.83735 10.0625 2.43735 9.6875 1.9811 9.6875H1.87485C1.29673 9.6875 0.840479 9.1625 0.956104 8.56563C1.04048 8.11875 1.4561 7.8125 1.90923 7.8125H5.4686C5.68423 7.8125 5.8811 7.725 6.02173 7.58438C6.15298 7.45312 6.23735 7.275 6.24985 7.07812C6.27485 6.625 5.87485 6.25 5.4186 6.25H5.1561C4.55298 6.25 4.06235 5.75938 4.06235 5.15625C4.06235 5.1 4.06548 5.04375 4.07798 4.99062C4.11235 4.75625 4.22173 4.54375 4.38423 4.38437C4.5811 4.18437 4.8561 4.0625 5.1561 4.0625H8.88735C9.09985 4.0625 9.2936 3.975 9.43736 3.8375C9.58735 3.6875 9.67798 3.47812 9.6686 3.24062C9.64985 2.81875 9.27485 2.5 8.85298 2.5H8.74985C8.17173 2.5 7.71548 1.975 7.8311 1.37812C7.91548 0.93125 8.3311 0.625 8.78423 0.625H18.8624C19.2374 0.625 19.5874 0.86875 19.6686 1.23438C19.7311 1.5125 19.6374 1.775 19.4624 1.95312C19.3249 2.09375 19.1311 2.18125 18.9186 2.1875H18.9061C18.6467 2.1875 18.4374 2.39688 18.4374 2.65625C18.4374 2.91563 18.6467 3.125 18.9061 3.125H19.0624C19.5967 3.125 20.0249 3.56875 19.9999 4.1125C19.9717 4.61875 19.5186 5 19.0124 5H17.8124C17.4342 5 17.1311 5.34062 17.1967 5.73125C17.2467 6.0375 17.5405 6.25 17.8499 6.25H18.7499C19.0092 6.25 19.2436 6.35625 19.4124 6.525C19.5405 6.65312 19.6342 6.82188 19.6717 7.00938Z" fill="url(#paint0_radial_0_167)"/>
<path d="M14.6875 19.375C14.1697 19.375 13.75 18.9553 13.75 18.4375C13.75 17.9197 14.1697 17.5 14.6875 17.5C15.2053 17.5 15.625 17.9197 15.625 18.4375C15.625 18.9553 15.2053 19.375 14.6875 19.375Z" fill="url(#paint1_radial_0_167)"/>
<path d="M2.03125 6.25C2.63531 6.25 3.125 5.76031 3.125 5.15625C3.125 4.55219 2.63531 4.0625 2.03125 4.0625C1.42719 4.0625 0.9375 4.55219 0.9375 5.15625C0.9375 5.76031 1.42719 6.25 2.03125 6.25Z" fill="url(#paint2_radial_0_167)"/>
<path d="M7.34822 9.28052C8.26854 9.28052 9.18885 9.63052 9.88947 10.3308L9.88979 10.3311C11.2904 11.7324 11.2904 14.0121 9.88979 15.4136L8.3426 16.9602C6.94166 18.3618 4.66166 18.3611 3.26041 16.9602C1.85916 15.5593 1.85916 13.2793 3.26041 11.878L4.80697 10.3311C5.5076 9.63083 6.42791 9.28052 7.34822 9.28052ZM8.3426 11.878C7.79385 11.3299 6.90166 11.3296 6.35354 11.8783L4.80697 13.4249C4.25885 13.9733 4.25885 14.8652 4.80697 15.4136C5.35572 15.9615 6.24697 15.9621 6.79572 15.4136L8.3426 13.8671C8.89072 13.3186 8.89072 12.4265 8.3426 11.878Z" fill="url(#paint3_linear_0_167)"/>
<path d="M14.6405 1.98853C15.5608 1.98853 16.4811 2.33884 17.1817 3.03946C18.583 4.4404 18.583 6.7204 17.1817 8.12165L15.6352 9.66853C14.2348 11.0698 11.9545 11.0695 10.5527 9.66884C9.15172 8.26728 9.15172 5.98728 10.5527 4.58603L12.0995 3.03946C12.7998 2.33884 13.7202 1.98853 14.6405 1.98853ZM13.0936 8.53321C13.4536 8.53321 13.8139 8.39634 14.0883 8.12227L15.6348 6.5754C16.183 6.02696 16.183 5.13509 15.6348 4.58665C15.0864 4.03853 14.1952 4.03853 13.6461 4.58665L12.0992 6.13321C11.5511 6.68165 11.5511 7.57384 12.0995 8.12227C12.3736 8.39602 12.7336 8.53321 13.0936 8.53321Z" fill="url(#paint4_linear_0_167)"/>
<path d="M12.2095 6.91748C12.4895 6.91748 12.7692 7.02436 12.983 7.23779C13.4101 7.66467 13.4101 8.35748 12.983 8.78436L9.00514 12.7622C8.57795 13.1894 7.88576 13.1894 7.45857 12.7622C7.03139 12.3353 7.03139 11.6425 7.45857 11.2156L11.4361 7.23811C11.6498 7.02436 11.9298 6.91748 12.2095 6.91748Z" fill="url(#paint5_linear_0_167)"/>
</g>
<defs>
<radialGradient id="paint0_radial_0_167" cx="0" cy="0" r="1" gradientUnits="userSpaceOnUse" gradientTransform="translate(7.85235 10.1131) scale(10.0084)">
<stop stop-color="#F4E9C3"/>
<stop offset="0.219" stop-color="#F8EECD"/>
<stop offset="0.644" stop-color="#FDF4DC"/>
<stop offset="1" stop-color="#FFF6E1"/>
</radialGradient>
<radialGradient id="paint1_radial_0_167" cx="0" cy="0" r="1" gradientUnits="userSpaceOnUse" gradientTransform="translate(7.8525 10.1131) scale(10.0084)">
<stop stop-color="#F4E9C3"/>
<stop offset="0.219" stop-color="#F8EECD"/>
<stop offset="0.644" stop-color="#FDF4DC"/>
<stop offset="1" stop-color="#FFF6E1"/>
</radialGradient>
<radialGradient id="paint2_radial_0_167" cx="0" cy="0" r="1" gradientUnits="userSpaceOnUse" gradientTransform="translate(7.8525 10.1131) scale(10.0084)">
<stop stop-color="#F4E9C3"/>
<stop offset="0.219" stop-color="#F8EECD"/>
<stop offset="0.644" stop-color="#FDF4DC"/>
<stop offset="1" stop-color="#FFF6E1"/>
</radialGradient>
<linearGradient id="paint3_linear_0_167" x1="8.3401" y1="17.214" x2="3.39322" y2="7.21396" gradientUnits="userSpaceOnUse">
<stop stop-color="#155CDE"/>
<stop offset="0.278" stop-color="#1F7FE5"/>
<stop offset="0.569" stop-color="#279CEB"/>
<stop offset="0.82" stop-color="#2CAFEF"/>
<stop offset="1" stop-color="#2EB5F0"/>
</linearGradient>
<linearGradient id="paint4_linear_0_167" x1="15.6873" y1="9.67509" x2="10.5277" y2="0.260088" gradientUnits="userSpaceOnUse">
<stop stop-color="#155CDE"/>
<stop offset="0.278" stop-color="#1F7FE5"/>
<stop offset="0.569" stop-color="#279CEB"/>
<stop offset="0.82" stop-color="#2CAFEF"/>
<stop offset="1" stop-color="#2EB5F0"/>
</linearGradient>
<linearGradient id="paint5_linear_0_167" x1="10.9323" y1="10.7581" x2="9.30983" y2="9.02936" gradientUnits="userSpaceOnUse">
<stop stop-color="#155CDE"/>
<stop offset="0.278" stop-color="#1F7FE5"/>
<stop offset="0.569" stop-color="#279CEB"/>
<stop offset="0.82" stop-color="#2CAFEF"/>
<stop offset="1" stop-color="#2EB5F0"/>
</linearGradient>
<clipPath id="clip0_0_167">
<rect width="20" height="20" fill="white"/>
</clipPath>
</defs>
</svg>
