<svg width="42" height="42" viewBox="0 0 42 42" fill="none" xmlns="http://www.w3.org/2000/svg">
<path d="M30.625 36.75H11.375C8.00625 36.75 5.25 33.9937 5.25 30.625V11.375C5.25 8.00625 8.00625 5.25 11.375 5.25H30.625C33.9937 5.25 36.75 8.00625 36.75 11.375V30.625C36.75 33.9937 33.9937 36.75 30.625 36.75Z" fill="url(#paint0_radial_0_1497)"/>
<path d="M27.8022 10.7966H14.8784V28.4821H27.8022V10.7966Z" fill="url(#paint1_linear_0_1497)"/>
<path d="M20.5642 17.7888H36.75V30.6251C36.75 34.0078 34.0077 36.7501 30.625 36.7501H20.5642V17.7888Z" fill="url(#paint2_linear_0_1497)"/>
<path d="M5.25 18.4309H21.1059V36.7499H11.375C7.99225 36.7499 5.25 34.0077 5.25 30.6249V18.4309Z" fill="url(#paint3_radial_0_1497)"/>
<path d="M29.8323 25.9797H13.0454V36.7501H29.8323V25.9797Z" fill="url(#paint4_radial_0_1497)"/>
<path opacity="0.05" d="M29.75 7.875H12.25C9.83763 7.875 7.875 9.83763 7.875 12.25V29.75C7.875 32.1624 9.83763 34.125 12.25 34.125H29.75C32.1624 34.125 34.125 32.1624 34.125 29.75V12.25C34.125 9.83763 32.1624 7.875 29.75 7.875ZM24.0537 24.5779L25.5544 24.3635C25.8125 24.3267 26.0487 24.2279 26.25 24.0844V25.7136C26.25 26.3349 25.7863 26.8704 25.1711 26.9579L24.4099 27.0672C23.6477 27.1766 22.9749 26.5764 22.9749 25.823C22.9749 25.2009 23.4386 24.6654 24.0537 24.5779ZM24.9953 15.5899L18.5351 16.975C18.319 17.0214 18.1204 17.1115 17.948 17.234V14.63L26.25 12.8511V15.8471C25.9044 15.603 25.4468 15.4954 24.9953 15.5899ZM17.2751 25.8799V27.5082C17.2751 28.1295 16.8114 28.665 16.1962 28.7525L15.435 28.8619C15.0369 28.9153 14.6519 28.7875 14.3719 28.5093C14.1312 28.2721 14 27.9554 14 27.6176C14 26.9964 14.4637 26.4609 15.0789 26.3734L16.5804 26.159C16.8376 26.1222 17.0747 26.0234 17.2751 25.8799Z" fill="black"/>
<path opacity="0.07" d="M29.75 8.3125H12.25C10.0791 8.3125 8.3125 10.0791 8.3125 12.25V29.75C8.3125 31.9209 10.0791 33.6875 12.25 33.6875H29.75C31.9209 33.6875 33.6875 31.9209 33.6875 29.75V12.25C33.6875 10.0791 31.9209 8.3125 29.75 8.3125ZM23.9916 24.1447L25.4931 23.9304C26.0592 23.8499 26.4862 23.3581 26.4862 22.7859V17.1474C26.4862 16.429 25.7968 15.8602 25.088 16.0177L18.627 17.4029C18.0976 17.5157 17.7126 17.9909 17.7126 18.5325V27.5091C17.7126 28.3474 17.087 29.0684 16.2575 29.1865L15.4971 29.2959C14.9581 29.3729 14.441 29.1952 14.0639 28.8216C13.7401 28.5014 13.5625 28.0744 13.5625 27.6185C13.5625 26.7802 14.1881 26.0592 15.0168 25.9411L16.5191 25.7267C17.0844 25.6462 17.5114 25.1545 17.5114 24.5823V14.5022C17.5114 14.371 17.6041 14.2555 17.7328 14.2284L26.3489 12.3821C26.369 12.3777 26.39 12.376 26.4092 12.376C26.5632 12.376 26.6875 12.502 26.6875 12.6569V25.7145C26.6875 26.5527 26.0619 27.2738 25.2324 27.3919L24.472 27.5013C23.4413 27.6535 22.5374 26.8389 22.5374 25.8239C22.5374 24.9848 23.163 24.2629 23.9916 24.1447Z" fill="black"/>
<path d="M29.75 8.75H12.25C10.325 8.75 8.75 10.325 8.75 12.25V29.75C8.75 31.675 10.325 33.25 12.25 33.25H29.75C31.675 33.25 33.25 31.675 33.25 29.75V12.25C33.25 10.325 31.675 8.75 29.75 8.75ZM27.125 25.7136C27.125 26.775 26.3445 27.6745 25.2945 27.8241L24.5332 27.9326C23.2487 28.1164 22.0999 27.1197 22.0999 25.8221C22.0999 24.7607 22.8804 23.8613 23.9304 23.7116L25.4319 23.4972C25.7854 23.4465 26.0479 23.1438 26.0479 22.7867V17.1474C26.0479 16.6906 25.6261 16.3494 25.1799 16.4456L18.718 17.8299C18.3872 17.9008 18.1501 18.193 18.1501 18.5316V27.5082C18.1501 28.5696 17.3696 29.4691 16.3196 29.6187L15.5584 29.7272C14.2739 29.9119 13.125 28.9152 13.125 27.6176C13.125 26.5562 13.9055 25.6567 14.9555 25.5071L16.457 25.2927C16.8105 25.242 17.073 24.9392 17.073 24.5822V14.5022C17.073 14.1636 17.3092 13.8714 17.6409 13.8005L26.2561 11.9542C26.7033 11.858 27.125 12.1992 27.125 12.656V25.7136Z" fill="white"/>
<defs>
<radialGradient id="paint0_radial_0_1497" cx="0" cy="0" r="1" gradientUnits="userSpaceOnUse" gradientTransform="translate(24.6461 12.25) scale(25.4126)">
<stop stop-color="#FFDD55"/>
<stop offset="0.511" stop-color="#FF543F"/>
<stop offset="0.558" stop-color="#FC5245"/>
<stop offset="0.644" stop-color="#E64771"/>
<stop offset="0.761" stop-color="#D53E91"/>
<stop offset="0.863" stop-color="#CC39A4"/>
<stop offset="0.943" stop-color="#C837AB"/>
</radialGradient>
<linearGradient id="paint1_linear_0_1497" x1="26.3392" y1="6.37176" x2="18.521" y2="27.1206" gradientUnits="userSpaceOnUse">
<stop stop-color="#FFDD55"/>
<stop offset="0.328" stop-color="#FF543F"/>
<stop offset="0.348" stop-color="#FC5245"/>
<stop offset="0.504" stop-color="#E64771"/>
<stop offset="0.643" stop-color="#D53E91"/>
<stop offset="0.761" stop-color="#CC39A4"/>
<stop offset="0.841" stop-color="#C837AB"/>
</linearGradient>
<linearGradient id="paint2_linear_0_1497" x1="28.5705" y1="30.3086" x2="28.8971" y2="18.1391" gradientUnits="userSpaceOnUse">
<stop stop-color="#29ABE2"/>
<stop offset="0.999" stop-color="#29ABE2" stop-opacity="0"/>
</linearGradient>
<radialGradient id="paint3_radial_0_1497" cx="0" cy="0" r="1" gradientUnits="userSpaceOnUse" gradientTransform="translate(16.633 36.864) scale(19.1881 17.8156)">
<stop stop-color="#29ABE2"/>
<stop offset="0.613" stop-color="#AA00FF"/>
<stop offset="0.989" stop-color="#29ABE2" stop-opacity="0"/>
</radialGradient>
<radialGradient id="paint4_radial_0_1497" cx="0" cy="0" r="1" gradientUnits="userSpaceOnUse" gradientTransform="translate(21.7283 33.5831) rotate(-58.8757) scale(5.40643 10.3184)">
<stop offset="0.129" stop-color="#29ABE2"/>
<stop offset="0.794" stop-color="#29ABE2" stop-opacity="0"/>
</radialGradient>
</defs>
</svg>
