<svg width="35" height="35" viewBox="0 0 35 35" fill="none" xmlns="http://www.w3.org/2000/svg">
<g id="print 1">
<path id="Vector" d="M30.6248 29.1667H4.37484C3.57275 29.1667 2.9165 28.5104 2.9165 27.7083V12.3958C2.9165 11.5937 3.57275 10.9375 4.37484 10.9375H30.6248C31.4269 10.9375 32.0832 11.5937 32.0832 12.3958V27.7083C32.0832 28.5104 31.4269 29.1667 30.6248 29.1667Z" fill="url(#paint0_linear_0_1521)"/>
<path id="Vector_2" d="M28.0731 24.0625H6.92725C6.3235 24.0625 5.8335 23.5725 5.8335 22.9688C5.8335 22.365 6.3235 21.875 6.92725 21.875H28.0731C28.6768 21.875 29.1668 22.365 29.1668 22.9688C29.1668 23.5725 28.6768 24.0625 28.0731 24.0625Z" fill="#252525"/>
<path id="Vector_3" d="M25.521 31.3541H9.47933C8.6736 31.3541 8.021 30.7015 8.021 29.8958V23.3333H26.9793V29.8958C26.9793 30.7015 26.3267 31.3541 25.521 31.3541Z" fill="white"/>
<path id="Vector_4" d="M29.1668 10.9376H5.8335V8.02091C5.8335 7.61841 6.16016 7.29175 6.56266 7.29175H28.4377C28.8402 7.29175 29.1668 7.61841 29.1668 8.02091V10.9376Z" fill="#364F72"/>
<path id="Vector_5" d="M9.47933 3.64575H25.521C26.3267 3.64575 26.9793 4.29836 26.9793 5.10409V10.9374H8.021V5.10409C8.021 4.29836 8.6736 3.64575 9.47933 3.64575Z" fill="white"/>
<path id="Vector_6" d="M26.9793 21.875H8.021V23.3333H26.9793V21.875Z" fill="#364F72"/>
<path id="Vector_7" d="M27.6776 17.5175C28.483 17.5175 29.1359 16.8646 29.1359 16.0592C29.1359 15.2537 28.483 14.6008 27.6776 14.6008C26.8722 14.6008 26.2192 15.2537 26.2192 16.0592C26.2192 16.8646 26.8722 17.5175 27.6776 17.5175Z" fill="#EEF2F3"/>
<path id="Vector_8" d="M27.7082 16.7708C28.1109 16.7708 28.4373 16.4444 28.4373 16.0417C28.4373 15.639 28.1109 15.3125 27.7082 15.3125C27.3055 15.3125 26.979 15.639 26.979 16.0417C26.979 16.4444 27.3055 16.7708 27.7082 16.7708Z" fill="url(#paint1_linear_0_1521)"/>
</g>
<defs>
<linearGradient id="paint0_linear_0_1521" x1="17.4998" y1="10.78" x2="17.4998" y2="29.0937" gradientUnits="userSpaceOnUse">
<stop offset="0.9" stop-color="#6D7882"/>
<stop offset="0.917" stop-color="#45494D"/>
</linearGradient>
<linearGradient id="paint1_linear_0_1521" x1="27.216" y1="15.5502" x2="28.301" y2="16.6352" gradientUnits="userSpaceOnUse">
<stop stop-color="#32BDEF"/>
<stop offset="1" stop-color="#1EA2E4"/>
</linearGradient>
</defs>
</svg>
