<svg width="37" height="37" viewBox="0 0 37 37" fill="none" xmlns="http://www.w3.org/2000/svg">
<path d="M30.0625 4.625H6.9375C5.66023 4.625 4.625 5.66023 4.625 6.9375V32.375L11.2202 26.2083H30.0625C31.339 26.2083 32.375 25.1723 32.375 23.8958V6.9375C32.375 5.66023 31.339 4.625 30.0625 4.625Z" fill="#2196F3"/>
<path d="M17.4881 18.0838C17.4881 17.2128 17.5944 16.5183 17.808 16.0026C18.0215 15.4861 18.4123 14.9774 18.9804 14.4763C19.5477 13.9768 19.9262 13.5683 20.1151 13.2538C20.3031 12.9393 20.3964 12.6078 20.3964 12.2586C20.3964 11.2065 19.9069 10.6807 18.9287 10.6807C18.4639 10.6807 18.0932 10.8226 17.8141 11.1055C17.5343 11.3891 17.3886 11.78 17.3763 12.2779H14.646C14.6583 11.0901 15.0461 10.1597 15.8076 9.48673C16.57 8.8161 17.6099 8.47925 18.928 8.47925C20.2584 8.47925 21.2898 8.79837 22.0252 9.43662C22.7575 10.0741 23.1252 10.9737 23.1252 12.1376C23.1252 12.6672 23.0065 13.1659 22.7675 13.6354C22.5285 14.1056 22.1115 14.6266 21.5157 15.1994L20.7541 15.9178C20.2769 16.3726 20.0041 16.9037 19.9347 17.5142L19.8969 18.0831L17.4881 18.0838ZM17.2152 20.9413C17.2152 20.5266 17.3586 20.1851 17.6438 19.9138C17.9297 19.6448 18.2944 19.5099 18.7399 19.5099C19.1854 19.5099 19.5508 19.6455 19.836 19.9138C20.122 20.1851 20.2654 20.5266 20.2654 20.9413C20.2654 21.3499 20.1251 21.6882 19.846 21.9534C19.567 22.2201 19.1985 22.3542 18.7399 22.3542C18.2812 22.3542 17.9136 22.2201 17.6337 21.9534C17.3547 21.6882 17.2152 21.3499 17.2152 20.9413Z" fill="#E3F2FD"/>
</svg>
