<svg width="29" height="29" viewBox="0 0 29 29" fill="none" xmlns="http://www.w3.org/2000/svg">
<path d="M16.4333 1.93335C16.2597 1.93355 16.0895 1.98045 15.9403 2.06915C15.7911 2.15785 15.6686 2.28507 15.5856 2.43745L7.90131 14.9192V14.921C7.79164 15.0819 7.73308 15.272 7.73328 15.4667C7.73328 15.7231 7.83512 15.9689 8.01641 16.1502C8.19769 16.3315 8.44357 16.4333 8.69994 16.4333H14.0166L12.5855 25.9074C12.5728 25.9708 12.5664 26.0354 12.5666 26.1C12.5666 26.3564 12.6685 26.6023 12.8497 26.7836C13.031 26.9648 13.2769 27.0667 13.5333 27.0667C13.7089 27.0664 13.8812 27.0183 14.0315 26.9275C14.1819 26.8367 14.3047 26.7066 14.3867 26.5513H14.3886L22.0464 14.1035L22.0369 14.0865C22.1513 13.9277 22.2333 13.7439 22.2333 13.5333C22.2333 12.9997 21.8002 12.5667 21.2666 12.5667H15.9499L17.3565 3.18511C17.3852 3.09278 17.3998 2.99668 17.3999 2.90002C17.3999 2.64364 17.2981 2.39776 17.1168 2.21648C16.9355 2.03519 16.6897 1.93335 16.4333 1.93335Z" fill="black"/>
</svg>
