<svg width="26" height="26" viewBox="0 0 26 26" fill="none" xmlns="http://www.w3.org/2000/svg">
<path d="M11.8301 18.8501C11.8301 18.8501 12.0901 19.6301 13.1301 19.6301C14.1701 19.6301 14.4301 18.8501 14.4301 18.8501" fill="#565FA1"/>
<path d="M13.1299 19.7599C12.009 19.7599 11.7183 18.9266 11.7064 18.891C11.6837 18.8229 11.7207 18.7493 11.7885 18.7264C11.8569 18.7038 11.93 18.7405 11.9528 18.8081C11.9627 18.8364 12.2019 19.4999 13.1299 19.4999C14.0653 19.4999 14.3043 18.8156 14.3064 18.8088C14.3295 18.7407 14.4031 18.7041 14.4709 18.7267C14.5391 18.7496 14.5757 18.8231 14.5531 18.8913C14.5414 18.9266 14.2507 19.7599 13.1299 19.7599Z" fill="#1F212B"/>
<path d="M4.41986 6.5H3.89986C3.32552 6.5 2.85986 6.96566 2.85986 7.54V18.98C2.85986 19.5543 3.32552 20.02 3.89986 20.02H11.6999C11.6999 20.02 11.9599 20.8 13.1299 20.8C14.2999 20.8 14.5599 20.02 14.5599 20.02H22.3599C22.9342 20.02 23.3999 19.5543 23.3999 18.98V7.54C23.3999 6.96566 22.9342 6.5 22.3599 6.5H21.8399H4.41986Z" fill="#F15B6C"/>
<path d="M22.2298 7.15007V18.8501H4.02979V7.15007L5.32979 5.07007C11.0498 5.07007 13.1298 6.63007 13.1298 6.63007C13.1298 6.63007 15.2098 5.07007 20.9298 5.07007L22.2298 7.15007Z" fill="#FEFDEF"/>
<path d="M4.02979 18.85H13.1298C13.1298 18.85 11.0498 17.29 5.32979 17.29L4.02979 18.85Z" fill="#CECCBE"/>
<path d="M5.33008 5.07007C11.0501 5.07007 13.1301 6.63007 13.1301 6.63007C13.1301 6.63007 15.2101 5.07007 20.9301 5.07007V17.2901C15.2101 17.2901 13.1301 18.8501 13.1301 18.8501C13.1301 18.8501 11.0501 17.2901 5.33008 17.2901V5.07007Z" fill="#FEFDEF"/>
<path d="M22.2301 18.9799H13.1301C13.0742 18.9799 13.0245 18.944 13.0066 18.891C12.9891 18.838 13.0071 18.7795 13.0521 18.7457C13.1384 18.6809 15.2322 17.1597 20.9301 17.1597C20.9685 17.1597 21.0052 17.1766 21.0299 17.2065L22.3299 18.7665C22.3624 18.8052 22.3692 18.859 22.3478 18.9048C22.3263 18.9508 22.2805 18.9799 22.2301 18.9799Z" fill="#CECCBE"/>
<path d="M5.22991 17.2084L3.92871 18.7673L4.12832 18.9339L5.42951 17.375L5.22991 17.2084Z" fill="#1F212B"/>
<path d="M22.3601 6.23999H21.6612L21.9862 6.75999H22.3601C22.7901 6.75999 23.1401 7.10995 23.1401 7.53999V18.98C23.1401 19.41 22.7901 19.76 22.3601 19.76H14.5601C14.4506 19.76 14.3518 19.8317 14.3147 19.9347C14.3056 19.9594 14.0833 20.54 13.1301 20.54C12.1769 20.54 11.9546 19.9594 11.9466 19.9378C11.9115 19.8315 11.8122 19.76 11.7001 19.76H3.9001C3.47006 19.76 3.1201 19.41 3.1201 18.98V7.53999C3.1201 7.10995 3.47006 6.75999 3.9001 6.75999H4.27372L4.59872 6.23999H3.9001C3.18328 6.23999 2.6001 6.82317 2.6001 7.53999V18.98C2.6001 19.6968 3.18328 20.28 3.9001 20.28H11.5392C11.7032 20.5574 12.1377 21.06 13.1301 21.06C14.1225 21.06 14.557 20.5574 14.721 20.28H22.3601C23.0769 20.28 23.6601 19.6968 23.6601 18.98V7.53999C23.6601 6.82317 23.0769 6.23999 22.3601 6.23999Z" fill="#1F212B"/>
<path d="M13.1299 18.9799C13.1029 18.9799 13.0756 18.9716 13.0525 18.9539C13.0317 18.9389 10.9264 17.4199 5.3302 17.4199C5.25844 17.4199 5.2002 17.3617 5.2002 17.2899V5.06994C5.2002 4.99818 5.25844 4.93994 5.3302 4.93994C10.4959 4.93994 12.6994 6.19054 13.1302 6.47212C13.561 6.19054 15.7645 4.93994 20.9302 4.93994C21.002 4.93994 21.0602 4.99818 21.0602 5.06994V17.2899C21.0602 17.3617 21.002 17.4199 20.9302 17.4199C17.993 17.4199 16.044 17.8409 14.926 18.194C14.8582 18.2161 14.7846 18.1776 14.763 18.1092C14.7414 18.0408 14.7794 17.9678 14.8478 17.9462C15.9665 17.5928 17.902 17.1724 20.8002 17.1605V5.20046C15.3009 5.22334 13.2285 6.71886 13.2079 6.73394C13.1622 6.76852 13.0982 6.76852 13.0525 6.73394C13.0319 6.7186 10.9595 5.22308 5.4602 5.2002V17.1602C11.0601 17.1831 13.1227 18.6817 13.2082 18.7459C13.2657 18.7891 13.2774 18.8705 13.2345 18.9277C13.2087 18.962 13.1695 18.9799 13.1299 18.9799Z" fill="#1F212B"/>
<path d="M22.2299 18.9801H4.0299C3.95814 18.9801 3.8999 18.9219 3.8999 18.8501V7.15012C3.8999 7.12568 3.90666 7.10176 3.91966 7.08122L5.21966 5.00122L5.44014 5.13876L4.1599 7.18756V18.7201H22.0999V7.18756L20.8197 5.13902L21.0401 5.00148L22.3401 7.08148C22.3531 7.10176 22.3599 7.12568 22.3599 7.15012V18.8501C22.3599 18.9219 22.3017 18.9801 22.2299 18.9801Z" fill="#1F212B"/>
<path d="M21.0293 17.2061L20.8296 17.3726L22.1296 18.9325L22.3293 18.766L21.0293 17.2061Z" fill="#1F212B"/>
<path d="M11.1167 7.43827C11.1045 7.43827 11.092 7.43645 11.0796 7.43281C10.831 7.35897 10.571 7.28955 10.3063 7.22637C10.2364 7.20973 10.1935 7.13953 10.2101 7.06959C10.2268 6.99965 10.2977 6.95727 10.3669 6.97339C10.636 7.03761 10.9007 7.10833 11.1537 7.18347C11.2226 7.20401 11.2618 7.27629 11.2413 7.34519C11.2246 7.40161 11.1729 7.43827 11.1167 7.43827Z" fill="#1F212B"/>
<path d="M11.8968 7.69563C11.882 7.69563 11.8669 7.69303 11.8521 7.68783C11.771 7.65819 11.6841 7.62777 11.5947 7.59709C11.5268 7.57395 11.4907 7.49985 11.5138 7.43199C11.537 7.36413 11.6113 7.32825 11.6789 7.35113C11.7705 7.38259 11.8586 7.41327 11.9415 7.44343C12.0089 7.46813 12.0437 7.54275 12.019 7.61035C11.9998 7.66313 11.9499 7.69563 11.8968 7.69563Z" fill="#1F212B"/>
<path d="M9.55709 7.06437C9.54929 7.06437 9.54097 7.06359 9.53317 7.06203C8.72353 6.91071 7.85461 6.80879 6.94981 6.75991C6.87805 6.75601 6.82319 6.69465 6.82683 6.62315C6.83073 6.55139 6.89521 6.49133 6.96359 6.50043C7.87957 6.55009 8.76019 6.65305 9.58049 6.80671C9.65095 6.81997 9.69775 6.88783 9.68449 6.95829C9.67305 7.02069 9.61845 7.06437 9.55709 7.06437Z" fill="#1F212B"/>
<path d="M11.1167 9.25825C11.1045 9.25825 11.092 9.25643 11.0796 9.25279C10.831 9.17895 10.571 9.10953 10.3063 9.04635C10.2364 9.02971 10.1935 8.95952 10.2101 8.88958C10.2268 8.81964 10.2977 8.77751 10.3669 8.79337C10.636 8.85759 10.9007 8.92832 11.1537 9.00346C11.2226 9.024 11.2618 9.09627 11.2413 9.16517C11.2246 9.22159 11.1729 9.25825 11.1167 9.25825Z" fill="#1F212B"/>
<path d="M11.8968 9.5157C11.882 9.5157 11.8669 9.5131 11.8521 9.5079C11.771 9.47826 11.6841 9.44784 11.5947 9.41716C11.5268 9.39402 11.4907 9.31992 11.5138 9.25206C11.537 9.1842 11.6113 9.14832 11.6789 9.1712C11.7705 9.20266 11.8586 9.23334 11.9415 9.2635C12.0089 9.2882 12.0437 9.36282 12.019 9.43042C11.9998 9.4832 11.9499 9.5157 11.8968 9.5157Z" fill="#1F212B"/>
<path d="M9.55709 8.88451C9.54929 8.88451 9.54097 8.88373 9.53317 8.88217C8.72353 8.73085 7.85461 8.62893 6.94981 8.58005C6.87805 8.57615 6.82319 8.51479 6.82683 8.44329C6.83073 8.37153 6.89521 8.31407 6.96359 8.32057C7.87957 8.37023 8.76019 8.47319 9.58049 8.62685C9.65095 8.64011 9.69775 8.70797 9.68449 8.77843C9.67305 8.84083 9.61845 8.88451 9.55709 8.88451Z" fill="#1F212B"/>
<path d="M11.1167 11.0782C11.1045 11.0782 11.092 11.0764 11.0796 11.0728C10.831 10.9989 10.571 10.9295 10.3063 10.8663C10.2364 10.8497 10.1935 10.7795 10.2101 10.7095C10.2268 10.6399 10.2977 10.597 10.3669 10.6133C10.636 10.6776 10.9007 10.7483 11.1537 10.8234C11.2226 10.844 11.2618 10.9162 11.2413 10.9851C11.2246 11.0416 11.1729 11.0782 11.1167 11.0782Z" fill="#1F212B"/>
<path d="M11.8968 11.3358C11.882 11.3358 11.8669 11.3332 11.8521 11.328C11.771 11.2983 11.6841 11.2679 11.5947 11.2372C11.5268 11.2141 11.4907 11.14 11.5138 11.0721C11.537 11.0043 11.6113 10.9684 11.6789 10.9913C11.7705 11.0227 11.8586 11.0534 11.9415 11.0836C12.0089 11.1083 12.0437 11.1829 12.019 11.2505C11.9998 11.3033 11.9499 11.3358 11.8968 11.3358Z" fill="#1F212B"/>
<path d="M9.55709 10.7044C9.54929 10.7044 9.54097 10.7037 9.53317 10.7021C8.72353 10.5508 7.85461 10.4489 6.94981 10.4C6.87805 10.3961 6.82319 10.3347 6.82683 10.2632C6.83073 10.1915 6.89521 10.1332 6.96359 10.1405C7.87957 10.1902 8.76019 10.2931 9.58049 10.4468C9.65095 10.46 9.69775 10.5279 9.68449 10.5984C9.67305 10.6608 9.61845 10.7044 9.55709 10.7044Z" fill="#1F212B"/>
<path d="M11.1167 12.8984C11.1045 12.8984 11.092 12.8966 11.0796 12.8929C10.831 12.8191 10.571 12.7497 10.3063 12.6865C10.2364 12.6699 10.1935 12.5997 10.2101 12.5297C10.2268 12.4598 10.2977 12.4177 10.3669 12.4335C10.636 12.4977 10.9007 12.5685 11.1537 12.6436C11.2226 12.6641 11.2618 12.7364 11.2413 12.8053C11.2246 12.8617 11.1729 12.8984 11.1167 12.8984Z" fill="#1F212B"/>
<path d="M11.8968 13.1557C11.882 13.1557 11.8669 13.1531 11.8521 13.1479C11.771 13.1183 11.6841 13.0878 11.5947 13.0572C11.5268 13.034 11.4907 12.9599 11.5138 12.8921C11.537 12.8242 11.6113 12.7881 11.6789 12.8112C11.7705 12.8427 11.8586 12.8733 11.9415 12.9035C12.0089 12.9282 12.0437 13.0028 12.019 13.0704C11.9998 13.1232 11.9499 13.1557 11.8968 13.1557Z" fill="#1F212B"/>
<path d="M9.55709 12.5244C9.54929 12.5244 9.54097 12.5237 9.53317 12.5221C8.72353 12.3708 7.85461 12.2689 6.94981 12.22C6.87805 12.2161 6.82319 12.1547 6.82683 12.0832C6.83073 12.0115 6.89521 11.9522 6.96359 11.9605C7.87957 12.0102 8.76019 12.1131 9.58049 12.2668C9.65095 12.28 9.69775 12.3479 9.68449 12.4184C9.67305 12.4808 9.61845 12.5244 9.55709 12.5244Z" fill="#1F212B"/>
<path d="M11.1167 14.7184C11.1045 14.7184 11.092 14.7165 11.0796 14.7129C10.831 14.6391 10.571 14.5696 10.3063 14.5065C10.2364 14.4898 10.1935 14.4196 10.2101 14.3497C10.2268 14.28 10.2977 14.2371 10.3669 14.2535C10.636 14.3177 10.9007 14.3884 11.1537 14.4636C11.2226 14.4841 11.2618 14.5564 11.2413 14.6253C11.2246 14.6817 11.1729 14.7184 11.1167 14.7184Z" fill="#1F212B"/>
<path d="M11.8968 14.9758C11.882 14.9758 11.8669 14.9732 11.8521 14.968C11.771 14.9383 11.6841 14.9079 11.5947 14.8772C11.5268 14.8541 11.4907 14.78 11.5138 14.7121C11.537 14.6443 11.6113 14.6081 11.6789 14.6313C11.7705 14.6627 11.8586 14.6934 11.9415 14.7236C12.0089 14.7483 12.0437 14.8229 12.019 14.8905C11.9998 14.9433 11.9499 14.9758 11.8968 14.9758Z" fill="#1F212B"/>
<path d="M9.55709 14.3444C9.54929 14.3444 9.54097 14.3437 9.53317 14.3421C8.72353 14.1908 7.85461 14.0889 6.94981 14.04C6.87805 14.0361 6.82319 13.9747 6.82683 13.9032C6.83073 13.8315 6.89521 13.7711 6.96359 13.7805C7.87957 13.8302 8.76019 13.9331 9.58049 14.0868C9.65095 14.1 9.69775 14.1679 9.68449 14.2384C9.67305 14.3008 9.61845 14.3444 9.55709 14.3444Z" fill="#1F212B"/>
<path d="M11.1167 16.5384C11.1045 16.5384 11.092 16.5365 11.0796 16.5329C10.831 16.4591 10.571 16.3896 10.3063 16.3265C10.2364 16.3098 10.1935 16.2396 10.2101 16.1697C10.2268 16.0997 10.2977 16.0574 10.3669 16.0735C10.636 16.1377 10.9007 16.2084 11.1537 16.2836C11.2226 16.3041 11.2618 16.3764 11.2413 16.4453C11.2246 16.5017 11.1729 16.5384 11.1167 16.5384Z" fill="#1F212B"/>
<path d="M11.8968 16.7958C11.882 16.7958 11.8669 16.7932 11.8521 16.788C11.771 16.7584 11.6841 16.728 11.5947 16.6973C11.5268 16.6742 11.4907 16.6001 11.5138 16.5322C11.537 16.4643 11.6113 16.4282 11.6789 16.4513C11.7705 16.4828 11.8586 16.5135 11.9415 16.5436C12.0089 16.5683 12.0437 16.643 12.019 16.7106C11.9998 16.7633 11.9499 16.7958 11.8968 16.7958Z" fill="#1F212B"/>
<path d="M9.55709 16.1646C9.54929 16.1646 9.54097 16.1638 9.53317 16.1622C8.72353 16.0109 7.85461 15.909 6.94981 15.8601C6.87805 15.8562 6.82319 15.7949 6.82683 15.7234C6.83073 15.6516 6.89521 15.5939 6.96359 15.6006C7.87957 15.6503 8.76019 15.7533 9.58049 15.9069C9.65095 15.9202 9.69775 15.988 9.68449 16.0585C9.67305 16.1209 9.61845 16.1646 9.55709 16.1646Z" fill="#1F212B"/>
<path d="M14.4968 9.51566C14.4438 9.51566 14.3939 9.48316 14.3746 9.43038C14.3499 9.36304 14.3848 9.28842 14.4521 9.26346C14.9453 9.08302 15.4752 8.92494 16.0267 8.79338L16.7809 8.63894C16.8511 8.62438 16.92 8.66988 16.9343 8.74034C16.9489 8.8108 16.9034 8.87944 16.8329 8.89374L16.0828 9.04714C15.5454 9.17532 15.0254 9.33054 14.5416 9.5076C14.527 9.51306 14.5117 9.51566 14.4968 9.51566Z" fill="#1F212B"/>
<path d="M17.5958 8.7591C17.5321 8.7591 17.4765 8.7123 17.4671 8.6473C17.457 8.57632 17.5064 8.51055 17.5776 8.50041C17.6699 8.48741 18.4546 8.39771 18.4546 8.39771L18.484 8.65589C18.484 8.65589 17.7058 8.7448 17.614 8.7578C17.6081 8.75884 17.6021 8.7591 17.5958 8.7591Z" fill="#1F212B"/>
<path d="M19.1005 8.60118C19.0329 8.60118 18.9757 8.54892 18.971 8.48028C18.9658 8.40878 19.0199 8.34638 19.0914 8.34144C19.2022 8.33364 19.315 8.32636 19.4297 8.32012C19.5007 8.31336 19.5625 8.37108 19.5664 8.44284C19.5703 8.5146 19.5155 8.57596 19.4437 8.5796C19.3304 8.58584 19.2191 8.59286 19.1094 8.60066C19.1068 8.60118 19.1036 8.60118 19.1005 8.60118Z" fill="#1F212B"/>
<path d="M14.4968 7.69584C14.4438 7.69584 14.3939 7.66334 14.3746 7.61056C14.3499 7.54322 14.3848 7.4686 14.4521 7.44364C14.9453 7.2632 15.4752 7.10512 16.0267 6.97356L16.7809 6.81912C16.8511 6.80456 16.92 6.85006 16.9343 6.92052C16.9489 6.99098 16.9034 7.05962 16.8329 7.07392L16.0828 7.22732C15.5454 7.3555 15.0254 7.51072 14.5416 7.68778C14.527 7.69324 14.5117 7.69584 14.4968 7.69584Z" fill="#1F212B"/>
<path d="M17.5958 6.93928C17.5321 6.93928 17.4765 6.89248 17.4671 6.82748C17.457 6.7565 17.5064 6.69072 17.5776 6.68058C17.6699 6.66758 18.4546 6.57788 18.4546 6.57788L18.484 6.83606C18.484 6.83606 17.7058 6.92498 17.614 6.93798C17.6081 6.93902 17.6021 6.93928 17.5958 6.93928Z" fill="#1F212B"/>
<path d="M19.1005 6.78109C19.0329 6.78109 18.9757 6.72883 18.971 6.66019C18.9658 6.58869 19.0199 6.52629 19.0914 6.52135C19.2022 6.51355 19.315 6.50627 19.4297 6.50003C19.5007 6.49041 19.5625 6.55099 19.5664 6.62275C19.5703 6.69451 19.5155 6.75587 19.4437 6.75951C19.3304 6.76575 19.2191 6.77277 19.1094 6.78057C19.1068 6.78109 19.1036 6.78109 19.1005 6.78109Z" fill="#1F212B"/>
<path d="M14.4968 13.1558C14.4438 13.1558 14.3939 13.1233 14.3746 13.0705C14.3499 13.0032 14.3848 12.9286 14.4521 12.9036C14.9453 12.7232 15.4752 12.5651 16.0267 12.4335L16.7809 12.2791C16.8511 12.2645 16.92 12.31 16.9343 12.3805C16.9489 12.4509 16.9034 12.5196 16.8329 12.5339L16.0828 12.6873C15.5454 12.8155 15.0254 12.9707 14.5416 13.1477C14.527 13.1532 14.5117 13.1558 14.4968 13.1558Z" fill="#1F212B"/>
<path d="M17.5958 12.3992C17.5321 12.3992 17.4765 12.3524 17.4671 12.2874C17.457 12.2165 17.5064 12.1507 17.5776 12.1405C17.6699 12.1275 18.4546 12.0378 18.4546 12.0378L18.484 12.296C18.484 12.296 17.7058 12.3849 17.614 12.3979C17.6081 12.399 17.6021 12.3992 17.5958 12.3992Z" fill="#1F212B"/>
<path d="M19.1005 12.2412C19.0329 12.2412 18.9757 12.1889 18.971 12.1203C18.9658 12.0488 19.0199 11.9864 19.0914 11.9814C19.2022 11.9736 19.315 11.9663 19.4297 11.9601C19.5007 11.9513 19.5625 12.0111 19.5664 12.0828C19.5703 12.1546 19.5155 12.2159 19.4437 12.2196C19.3304 12.2258 19.2191 12.2328 19.1094 12.2406C19.1068 12.2412 19.1036 12.2412 19.1005 12.2412Z" fill="#1F212B"/>
<path d="M14.4968 11.3357C14.4438 11.3357 14.3939 11.3032 14.3746 11.2505C14.3499 11.1831 14.3848 11.1085 14.4521 11.0835C14.9453 10.9031 15.4752 10.745 16.0267 10.6135L16.7809 10.459C16.8511 10.4445 16.92 10.49 16.9343 10.5604C16.9489 10.6309 16.9034 10.6995 16.8329 10.7138L16.0828 10.8672C15.5454 10.9954 15.0254 11.1506 14.5416 11.3277C14.527 11.3331 14.5117 11.3357 14.4968 11.3357Z" fill="#1F212B"/>
<path d="M17.5958 10.5792C17.5321 10.5792 17.4765 10.5324 17.4671 10.4674C17.457 10.3964 17.5064 10.3306 17.5776 10.3205C17.6699 10.3075 18.4546 10.2178 18.4546 10.2178L18.484 10.476C18.484 10.476 17.7058 10.5649 17.614 10.5779C17.6081 10.5789 17.6021 10.5792 17.5958 10.5792Z" fill="#1F212B"/>
<path d="M19.1005 10.4212C19.0329 10.4212 18.9757 10.3689 18.971 10.3003C18.9658 10.2288 19.0199 10.1664 19.0914 10.1614C19.2022 10.1536 19.315 10.1463 19.4297 10.1401C19.5007 10.1323 19.5625 10.1911 19.5664 10.2628C19.5703 10.3346 19.5155 10.3959 19.4437 10.3996C19.3304 10.4058 19.2191 10.4128 19.1094 10.4206C19.1068 10.4212 19.1036 10.4212 19.1005 10.4212Z" fill="#1F212B"/>
<path d="M14.4968 16.7957C14.4438 16.7957 14.3939 16.7632 14.3746 16.7104C14.3499 16.6431 14.3848 16.5685 14.4521 16.5435C14.9453 16.3631 15.4752 16.205 16.0267 16.0734L16.7809 15.919C16.8511 15.9044 16.92 15.9499 16.9343 16.0204C16.9489 16.0908 16.9034 16.1595 16.8329 16.1738L16.0828 16.3272C15.5454 16.4554 15.0254 16.6106 14.5416 16.7876C14.527 16.7931 14.5117 16.7957 14.4968 16.7957Z" fill="#1F212B"/>
<path d="M17.5958 16.0391C17.5321 16.0391 17.4765 15.9923 17.4671 15.9273C17.457 15.8564 17.5064 15.7906 17.5776 15.7804C17.6699 15.7674 18.4546 15.6777 18.4546 15.6777L18.484 15.9359C18.484 15.9359 17.7058 16.0248 17.614 16.0378C17.6081 16.0389 17.6021 16.0391 17.5958 16.0391Z" fill="#1F212B"/>
<path d="M19.1005 15.881C19.0329 15.881 18.9757 15.8287 18.971 15.7601C18.9658 15.6886 19.0199 15.6262 19.0914 15.6213C19.2022 15.6135 19.315 15.6062 19.4297 15.5999C19.5007 15.5929 19.5625 15.6509 19.5664 15.7227C19.5703 15.7944 19.5155 15.8558 19.4437 15.8594C19.3304 15.8657 19.2191 15.8727 19.1094 15.8805C19.1068 15.881 19.1036 15.881 19.1005 15.881Z" fill="#1F212B"/>
<path d="M14.4968 14.9759C14.4438 14.9759 14.3939 14.9434 14.3746 14.8906C14.3499 14.8232 14.3848 14.7486 14.4521 14.7237C14.9453 14.5432 15.4752 14.3851 16.0267 14.2536L16.7809 14.0991C16.8511 14.0846 16.92 14.1301 16.9343 14.2005C16.9489 14.271 16.9034 14.3396 16.8329 14.3539L16.0828 14.5073C15.5454 14.6355 15.0254 14.7907 14.5416 14.9678C14.527 14.9733 14.5117 14.9759 14.4968 14.9759Z" fill="#1F212B"/>
<path d="M17.5958 14.2191C17.5321 14.2191 17.4765 14.1723 17.4671 14.1073C17.457 14.0363 17.5064 13.9705 17.5776 13.9604C17.6699 13.9474 18.4546 13.8577 18.4546 13.8577L18.484 14.1158C18.484 14.1158 17.7058 14.2048 17.614 14.2178C17.6081 14.2188 17.6021 14.2191 17.5958 14.2191Z" fill="#1F212B"/>
<path d="M19.1005 14.0612C19.0329 14.0612 18.9757 14.0089 18.971 13.9403C18.9658 13.8688 19.0199 13.8064 19.0914 13.8014C19.2022 13.7936 19.315 13.7863 19.4297 13.7801C19.5007 13.7702 19.5625 13.8311 19.5664 13.9028C19.5703 13.9746 19.5155 14.0359 19.4437 14.0396C19.3304 14.0458 19.2191 14.0528 19.1094 14.0606C19.1068 14.0612 19.1036 14.0612 19.1005 14.0612Z" fill="#1F212B"/>
<path d="M13.13 15.6C13.0582 15.6 13 15.5418 13 15.47V6.63C13 6.55824 13.0582 6.5 13.13 6.5C13.2018 6.5 13.26 6.55824 13.26 6.63V15.47C13.26 15.5418 13.2018 15.6 13.13 15.6Z" fill="#1F212B"/>
<path d="M13.13 17.9399C13.0582 17.9399 13 17.8817 13 17.8099V17.5499C13 17.4782 13.0582 17.4199 13.13 17.4199C13.2018 17.4199 13.26 17.4782 13.26 17.5499V17.8099C13.26 17.8817 13.2018 17.9399 13.13 17.9399Z" fill="#1F212B"/>
<path d="M13.13 16.9001C13.0582 16.9001 13 16.8419 13 16.7701V16.2501C13 16.1784 13.0582 16.1201 13.13 16.1201C13.2018 16.1201 13.26 16.1784 13.26 16.2501V16.7701C13.26 16.8419 13.2018 16.9001 13.13 16.9001Z" fill="#1F212B"/>
</svg>
