<svg width="29" height="24" viewBox="0 0 29 24" fill="none" xmlns="http://www.w3.org/2000/svg">
<g id="summary_list 1">
<path id="Vector" d="M24.1667 3H4.83332C3.50053 3 2.41666 3.897 2.41666 5V19C2.41666 20.103 3.50053 21 4.83332 21H24.1667C25.4994 21 26.5833 20.103 26.5833 19V5C26.5833 3.897 25.4994 3 24.1667 3ZM12.0833 17H7.24999C6.58299 17 6.04166 16.552 6.04166 16C6.04166 15.448 6.58299 15 7.24999 15H12.0833C12.7503 15 13.2917 15.448 13.2917 16C13.2917 16.552 12.7503 17 12.0833 17ZM12.0833 13H7.24999C6.58299 13 6.04166 12.552 6.04166 12C6.04166 11.448 6.58299 11 7.24999 11H12.0833C12.7503 11 13.2917 11.448 13.2917 12C13.2917 12.552 12.7503 13 12.0833 13ZM12.0833 9H7.24999C6.58299 9 6.04166 8.552 6.04166 8C6.04166 7.448 6.58299 7 7.24999 7H12.0833C12.7503 7 13.2917 7.448 13.2917 8C13.2917 8.552 12.7503 9 12.0833 9ZM16.9167 17C16.2497 17 15.7083 16.552 15.7083 16V8C15.7083 7.448 16.2497 7 16.9167 7C17.5837 7 18.125 7.448 18.125 8V16C18.125 16.552 17.5837 17 16.9167 17ZM22.3542 17H21.1458C20.8123 17 20.5417 16.776 20.5417 16.5V15.5C20.5417 15.224 20.8123 15 21.1458 15H22.3542C22.6877 15 22.9583 15.224 22.9583 15.5V16.5C22.9583 16.776 22.6877 17 22.3542 17ZM22.3542 13H21.1458C20.8123 13 20.5417 12.776 20.5417 12.5V11.5C20.5417 11.224 20.8123 11 21.1458 11H22.3542C22.6877 11 22.9583 11.224 22.9583 11.5V12.5C22.9583 12.776 22.6877 13 22.3542 13ZM22.3542 9H21.1458C20.8123 9 20.5417 8.776 20.5417 8.5V7.5C20.5417 7.224 20.8123 7 21.1458 7H22.3542C22.6877 7 22.9583 7.224 22.9583 7.5V8.5C22.9583 8.776 22.6877 9 22.3542 9Z" fill="white"/>
</g>
</svg>
