<svg width="16" height="18" viewBox="0 0 16 18" fill="none" xmlns="http://www.w3.org/2000/svg">
<path id="Vector" d="M0 16.6625V1.10059C1.60371e-05 0.906282 0.0513773 0.715439 0.148876 0.547457C0.246374 0.379474 0.38653 0.240335 0.555098 0.144187C0.723666 0.0480392 0.914641 -0.00168891 1.10861 4.3779e-05C1.30259 0.00177647 1.49264 0.0549139 1.65947 0.154058L14.749 7.93456C14.9127 8.0322 15.0483 8.17077 15.1425 8.3367C15.2366 8.50264 15.2861 8.69023 15.2861 8.88109C15.2861 9.07196 15.2366 9.25955 15.1425 9.42548C15.0483 9.59141 14.9127 9.72999 14.749 9.82762L1.65947 17.6081C1.49271 17.7072 1.30273 17.7604 1.10883 17.7621C0.914938 17.7639 0.724035 17.7143 0.555493 17.6182C0.386952 17.5222 0.246768 17.3832 0.149205 17.2153C0.0516423 17.0475 0.000174792 16.8567 0 16.6625Z" fill="black" fill-opacity="0.7"/>
</svg>
