<svg width="20" height="20" viewBox="0 0 20 20" fill="none" xmlns="http://www.w3.org/2000/svg">
<path d="M5.12505 2.00002C4.90474 2.02034 4.74224 2.21721 4.76255 2.43752C4.78286 2.65784 4.97974 2.82034 5.20005 2.80002H14.8C14.9438 2.80159 15.0782 2.72659 15.1516 2.60159C15.2235 2.47659 15.2235 2.32346 15.1516 2.19846C15.0782 2.07346 14.9438 1.99846 14.8 2.00002H5.20005C5.18755 2.00002 5.17505 2.00002 5.16255 2.00002C5.15005 2.00002 5.13755 2.00002 5.12505 2.00002ZM3.12505 3.60002C2.90474 3.62034 2.74224 3.81721 2.76255 4.03752C2.78286 4.25784 2.97974 4.42034 3.20005 4.40002H16.8C16.9438 4.40159 17.0782 4.32659 17.1516 4.20159C17.2235 4.07659 17.2235 3.92346 17.1516 3.79846C17.0782 3.67346 16.9438 3.59846 16.8 3.60002H3.20005C3.18755 3.60002 3.17505 3.60002 3.16255 3.60002C3.15005 3.60002 3.13755 3.60002 3.12505 3.60002ZM1.20005 5.20002C0.978174 5.20002 0.800049 5.37971 0.800049 5.60002V17.6C0.800049 17.8203 0.978174 18 1.20005 18H18.8C19.0219 18 19.2 17.8203 19.2 17.6V5.60002C19.2 5.37971 19.0219 5.20002 18.8 5.20002H1.20005ZM8.07505 9.20002L12.325 11.6L8.07505 14V9.20002Z" fill="white"/>
</svg>
